<svg xmlns="http://www.w3.org/2000/svg" width="39.099" height="39" viewBox="0 0 39.099 39">
  <g id="Group_23447" data-name="Group 23447" transform="translate(-829 -4058)">
    <path id="Path_51288" data-name="Path 51288" d="M4.552,19h3.2V5.86H2.77V8.722H4.552Zm7.47-7.056a3.364,3.364,0,0,0-2,3.2c0,2.628,2.178,4.1,4.86,4.1s4.86-1.476,4.86-4.1a3.369,3.369,0,0,0-2.016-3.2A3.071,3.071,0,0,0,19.42,9.118c0-1.872-1.44-3.528-4.536-3.528S10.33,7.246,10.33,9.118A3.021,3.021,0,0,0,12.022,11.944Zm2.862-.828A1.445,1.445,0,0,1,13.336,9.6a1.442,1.442,0,0,1,1.548-1.566,1.437,1.437,0,0,1,1.548,1.548A1.459,1.459,0,0,1,14.884,11.116Zm0,2.16A1.68,1.68,0,0,1,16.738,15a1.7,1.7,0,0,1-1.854,1.728A1.71,1.71,0,0,1,12.994,15,1.69,1.69,0,0,1,14.884,13.276Z" transform="translate(837 4065)" fill="#151515"/>
    <path id="Path_51286" data-name="Path 51286" d="M16.1,14.392H13.2V17.38H9.817V14.392H6.9V11.206H9.817V8.2H13.2v3.006h2.9Z" transform="translate(852 4058)" fill="#151515"/>
    <g id="Path_51287" data-name="Path 51287" transform="matrix(0, 1, -1, 0, 868, 4058)" fill="none" stroke-dasharray="104">
      <path d="M19.5,0A19.5,19.5,0,1,1,0,19.5,19.5,19.5,0,0,1,19.5,0Z" stroke="none"/>
      <path d="M 19.5 0 C 19.65318489074707 3.814697265625e-06 19.80593681335449 0.00177001953125 19.95824813842773 0.005279541015625 C 20.11971092224121 0.009002685546875 20.28065299987793 0.01468658447265625 20.44112396240234 0.02231216430664062 C 20.50186729431152 0.02519989013671875 20.56245422363281 0.02835845947265625 20.6230525970459 0.03179931640625 C 20.6962890625 0.03595352172851562 20.76802635192871 0.04042816162109375 20.84104537963867 0.04539108276367188 C 25.69168090820312 0.3747367858886719 30.05505752563477 2.477897644042969 33.28858184814453 5.711418151855469 C 33.63189697265625 6.054737091064453 33.96265411376953 6.411006927490234 34.27971649169922 6.779037475585938 C 37.22159957885742 10.1938362121582 39 14.63911056518555 39 19.5 C 39 19.65315628051758 38.99823379516602 19.80593681335449 38.99472045898438 19.95824813842773 C 38.99099731445312 20.11971092224121 38.98531341552734 20.28065299987793 38.97768783569336 20.44112396240234 C 38.97480010986328 20.50186729431152 38.97164154052734 20.56245422363281 38.96820068359375 20.6230525970459 C 38.96404647827148 20.6962890625 38.95957183837891 20.76802635192871 38.95460891723633 20.84104537963867 C 38.62526321411133 25.69168090820312 36.52210235595703 30.05505752563477 33.28858184814453 33.28858184814453 C 30.05505752563477 36.52210235595703 25.69168090820312 38.62526321411133 20.84104537963867 38.95460891723633 C 20.76802635192871 38.95957183837891 20.6962890625 38.96404647827148 20.6230525970459 38.96820068359375 C 20.56245422363281 38.97164154052734 20.50186729431152 38.97480010986328 20.44112396240234 38.97768783569336 C 20.28065299987793 38.98531341552734 20.11971092224121 38.99099731445312 19.95824813842773 38.99472045898438 C 19.80331993103027 38.99829483032227 19.6478099822998 39.00006103515625 19.49211311340332 39 C 14.63430023193359 38.99807739257812 10.19198989868164 37.22000885009766 6.779037475585938 34.27971649169922 C 6.411006927490234 33.96265411376953 6.054737091064453 33.63189697265625 5.711418151855469 33.28858184814453 C 2.477897644042969 30.05505752563477 0.3747367858886719 25.69168090820312 0.04539108276367188 20.84104537963867 C 0.04042816162109375 20.76802635192871 0.03595352172851562 20.6962890625 0.03179931640625 20.6230525970459 C 0.02835845947265625 20.56245422363281 0.02519989013671875 20.50186729431152 0.02231216430664062 20.44112396240234 C 0.01468658447265625 20.28065299987793 0.009002685546875 20.11971092224121 0.005279541015625 19.95824813842773 C 0.001766204833984375 19.80593681335449 0 19.65315628051758 0 19.5 C 0 19.5 0 19.5 0 19.5 C 0 19.49638748168945 0 19.49267196655273 3.814697265625e-06 19.48905944824219 C 3.814697265625e-06 19.4884033203125 3.814697265625e-06 19.48707008361816 3.814697265625e-06 19.48641395568848 C 7.62939453125e-06 19.48305892944336 1.1444091796875e-05 19.47912788391113 1.52587890625e-05 19.47577285766602 C 1.52587890625e-05 19.47511672973633 1.52587890625e-05 19.47448539733887 1.9073486328125e-05 19.47382736206055 C 2.288818359375e-05 19.47073173522949 2.6702880859375e-05 19.46755790710449 3.0517578125e-05 19.46446228027344 C 3.4332275390625e-05 19.46380615234375 3.4332275390625e-05 19.4625301361084 3.814697265625e-05 19.46187400817871 C 4.1961669921875e-05 19.4582633972168 4.9591064453125e-05 19.45505523681641 6.103515625e-05 19.45144462585449 C 6.103515625e-05 19.4507884979248 6.4849853515625e-05 19.44944381713867 6.4849853515625e-05 19.44878768920898 C 7.62939453125e-05 19.4454345703125 8.392333984375e-05 19.44245338439941 9.1552734375e-05 19.43910217285156 C 9.5367431640625e-05 19.43844413757324 9.5367431640625e-05 19.43839073181152 9.918212890625e-05 19.4377326965332 C 0.000110626220703125 19.43386650085449 0.0001220703125 19.43073081970215 0.000133514404296875 19.42686462402344 C 0.0001373291015625 19.42620658874512 0.000141143798828125 19.4249382019043 0.00014495849609375 19.42428016662598 C 0.000156402587890625 19.42092895507812 0.000171661376953125 19.41743659973145 0.000186920166015625 19.41408538818359 C 0.000186920166015625 19.41408538818359 0.00019073486328125 19.41275787353516 0.00019073486328125 19.41275787353516 C 0.00020599365234375 19.4094066619873 0.00022125244140625 19.4058895111084 0.000240325927734375 19.40253829956055 C 0.000244140625 19.40122413635254 0.000247955322265625 19.40089797973633 0.00025177001953125 19.39958572387695 C 0.000270843505859375 19.3962345123291 0.0002899169921875 19.39241790771484 0.000308990478515625 19.38906669616699 C 0.00031280517578125 19.3884105682373 0.000316619873046875 19.38799095153809 0.0003204345703125 19.3873348236084 C 0.000335693359375 19.38424110412598 0.00035858154296875 19.38067817687988 0.000377655029296875 19.37758636474609 C 0.0003814697265625 19.37693023681641 0.000385284423828125 19.37612152099609 0.00038909912109375 19.37546539306641 C 0.0004119873046875 19.37185859680176 0.00043487548828125 19.36829566955566 0.000461578369140625 19.36468887329102 C 0.00046539306640625 19.36403274536133 0.0004730224609375 19.36303520202637 0.000476837158203125 19.36237907409668 C 0.00049591064453125 19.35928726196289 0.000522613525390625 19.35591506958008 0.000545501708984375 19.35282325744629 C 0.00054931640625 19.3521671295166 0.000553131103515625 19.35163116455078 0.00055694580078125 19.35097503662109 C 0.000583648681640625 19.34736824035645 0.000614166259765625 19.34378242492676 0.000640869140625 19.34017562866211 C 0.00064849853515625 19.33951950073242 0.0006561279296875 19.33842086791992 0.000659942626953125 19.33776473999023 C 0.000690460205078125 19.33415794372559 0.000720977783203125 19.33060646057129 0.000751495361328125 19.32700157165527 C 0.000751495361328125 19.32700157165527 0.00075531005859375 19.32671737670898 0.00075531005859375 19.32671737670898 C 0.00078582763671875 19.32311248779297 0.000820159912109375 19.31942749023438 0.000850677490234375 19.31582260131836 C 0.000865936279296875 19.31451225280762 0.000865936279296875 19.31451988220215 0.00087738037109375 19.31320762634277 C 0.00090789794921875 19.30986022949219 0.000946044921875 19.30594062805176 0.000980377197265625 19.30259323120117 C 0.00098419189453125 19.30193710327148 0.0009918212890625 19.30127143859863 0.00099945068359375 19.30061531066895 C 0.00102996826171875 19.29752731323242 0.001064300537109375 19.29429244995117 0.001094818115234375 19.29120445251465 C 0.001102447509765625 19.29054832458496 0.0011138916015625 19.2894172668457 0.00112152099609375 19.28876304626465 C 0.00115966796875 19.28515815734863 0.00119781494140625 19.28169441223145 0.0012359619140625 19.27809143066406 C 0.00124359130859375 19.27743721008301 0.001255035400390625 19.27656555175781 0.001262664794921875 19.27590942382812 C 0.001300811767578125 19.27256393432617 0.00133514404296875 19.26936912536621 0.001377105712890625 19.26602554321289 C 0.001384735107421875 19.2653694152832 0.001384735107421875 19.26525688171387 0.001392364501953125 19.26460075378418 C 0.001434326171875 19.2609977722168 0.0014801025390625 19.25728988647461 0.00152587890625 19.25368881225586 C 0.00153350830078125 19.25303268432617 0.001544952392578125 19.25202369689941 0.001552581787109375 19.25136947631836 C 0.001598358154296875 19.24776649475098 0.001644134521484375 19.24420166015625 0.001689910888671875 19.2406005859375 C 0.001689910888671875 19.2406005859375 0.0016937255859375 19.24020576477051 0.0016937255859375 19.24020576477051 C 0.001743316650390625 19.23660469055176 0.00179290771484375 19.23279571533203 0.001842498779296875 19.22919464111328 C 0.001850128173828125 19.22853851318359 0.001865386962890625 19.22743606567383 0.0018768310546875 19.22677993774414 C 0.001926422119140625 19.22317886352539 0.00197601318359375 19.219482421875 0.0020294189453125 19.21588325500488 C 0.00203704833984375 19.2152271270752 0.00203704833984375 19.21533584594727 0.002044677734375 19.21467971801758 C 0.002094268798828125 19.21133613586426 0.00213623046875 19.20829391479492 0.002185821533203125 19.2049503326416 C 0.002197265625 19.20429611206055 0.002216339111328125 19.20288467407227 0.002227783203125 19.20223045349121 C 0.00228118896484375 19.19863128662109 0.002330780029296875 19.19529151916504 0.00238800048828125 19.19169235229492 C 0.002399444580078125 19.19103622436523 0.002410888671875 19.19018936157227 0.002422332763671875 19.18953323364258 C 0.002471923828125 19.18644905090332 0.00252532958984375 19.18298530578613 0.002574920654296875 19.17990112304688 C 0.00258636474609375 19.17924499511719 0.002593994140625 19.17863655090332 0.002605438232421875 19.17798233032227 C 0.00266265869140625 19.17438316345215 0.002719879150390625 19.17086410522461 0.002780914306640625 19.16726684570312 C 0.0027923583984375 19.16661262512207 0.002811431884765625 19.16551399230957 0.0028228759765625 19.16485977172852 C 0.002880096435546875 19.16151809692383 0.002941131591796875 19.15776062011719 0.003002166748046875 19.15442085266113 C 0.003002166748046875 19.15442085266113 0.00301361083984375 19.15376853942871 0.00301361083984375 19.15376853942871 C 0.00307464599609375 19.15017127990723 0.003139495849609375 19.14658546447754 0.003204345703125 19.14298820495605 C 0.00322723388671875 19.14167976379395 0.00322723388671875 19.1416015625 0.0032501220703125 19.14029312133789 C 0.0033111572265625 19.13695335388184 0.003383636474609375 19.13297653198242 0.003448486328125 19.12963676452637 C 0.003459930419921875 19.12898254394531 0.0034637451171875 19.12875938415527 0.003475189208984375 19.12810516357422 C 0.0035400390625 19.12476539611816 0.003597259521484375 19.12174606323242 0.003658294677734375 19.118408203125 C 0.003673553466796875 19.11775398254395 0.003696441650390625 19.11652374267578 0.0037078857421875 19.11586952209473 C 0.00377655029296875 19.11227416992188 0.003841400146484375 19.10908889770508 0.003910064697265625 19.10549354553223 C 0.003925323486328125 19.10483932495117 0.003955841064453125 19.10334777832031 0.00396728515625 19.10269355773926 C 0.0040283203125 19.09961128234863 0.00408172607421875 19.09695243835449 0.004146575927734375 19.0938720703125 C 0.00417327880859375 19.09256362915039 0.0041656494140625 19.09292984008789 0.004192352294921875 19.09162139892578 C 0.00426483154296875 19.08802604675293 0.004337310791015625 19.08459281921387 0.004413604736328125 19.08099746704102 C 0.004425048828125 19.08034324645996 0.004451751708984375 19.07921409606934 0.00446319580078125 19.07856178283691 C 0.004535675048828125 19.07522392272949 0.004619598388671875 19.07132530212402 0.00469207763671875 19.0679874420166 C 0.00469207763671875 19.0679874420166 0.004703521728515625 19.06749534606934 0.004703521728515625 19.06749534606934 C 0.004779815673828125 19.06389999389648 0.00485992431640625 19.06023597717285 0.004940032958984375 19.05664253234863 C 0.004970550537109375 19.05533599853516 0.004974365234375 19.05523872375488 0.005001068115234375 19.05393218994141 C 0.0050811767578125 19.05033874511719 0.005161285400390625 19.04685211181641 0.005245208740234375 19.04326057434082 C 0.005260467529296875 19.04260635375977 0.005260467529296875 19.04259872436523 0.005275726318359375 19.04194450378418 C 0.005352020263671875 19.03860855102539 0.005420684814453125 19.03571319580078 0.005496978759765625 19.03237915039062 C 0.005512237548828125 19.03172492980957 0.00554656982421875 19.03022193908691 0.00556182861328125 19.02956962585449 C 0.005649566650390625 19.02597618103027 0.005725860595703125 19.02271842956543 0.0058135986328125 19.01912689208984 C 0.005828857421875 19.01847267150879 0.005855560302734375 19.01740646362305 0.005870819091796875 19.01675224304199 C 0.005947113037109375 19.01367378234863 0.006015777587890625 19.01077079772949 0.006092071533203125 19.00769233703613 C 0.00612640380859375 19.00638580322266 0.006122589111328125 19.0065746307373 0.006153106689453125 19.00526809692383 C 0.006244659423828125 19.00167655944824 0.006328582763671875 18.99822616577148 0.006420135498046875 18.9946346282959 C 0.006439208984375 18.99398231506348 0.00646209716796875 18.99302864074707 0.006481170654296875 18.99237632751465 C 0.006565093994140625 18.98904228210449 0.00666046142578125 18.98538780212402 0.006744384765625 18.98205375671387 C 0.006763458251953125 18.98140144348145 0.00675201416015625 18.98186874389648 0.00676727294921875 18.98121643066406 C 0.006862640380859375 18.97762489318848 0.006954193115234375 18.9741096496582 0.007049560546875 18.97052001953125 C 0.007083892822265625 18.96921348571777 0.00708770751953125 18.96903419494629 0.0071258544921875 18.96772956848145 C 0.007213592529296875 18.96439552307129 0.007312774658203125 18.96068954467773 0.007404327392578125 18.95735740661621 C 0.00742340087890625 18.95670509338379 0.007450103759765625 18.9557056427002 0.00746917724609375 18.95505142211914 C 0.0075531005859375 18.95197486877441 0.007625579833984375 18.94928550720215 0.00771331787109375 18.94621086120605 C 0.007732391357421875 18.945556640625 0.00777435302734375 18.94398880004883 0.007793426513671875 18.94333648681641 C 0.007892608642578125 18.93974876403809 0.0079803466796875 18.93662452697754 0.008083343505859375 18.93303680419922 C 0.008121490478515625 18.93173217773438 0.00812530517578125 18.9316463470459 0.0081634521484375 18.93033981323242 C 0.008251190185546875 18.92726516723633 0.00832366943359375 18.92472648620605 0.008411407470703125 18.92165184020996 C 0.008449554443359375 18.92034530639648 0.008449554443359375 18.92040824890137 0.008487701416015625 18.91910171508789 C 0.00858306884765625 18.915771484375 0.008686065673828125 18.9123477935791 0.008785247802734375 18.90901756286621 C 0.0088043212890625 18.90836524963379 0.0088653564453125 18.90630340576172 0.008884429931640625 18.9056510925293 C 0.008968353271484375 18.90283393859863 0.009067535400390625 18.89961814880371 0.009151458740234375 18.89680099487305 C 0.0091705322265625 18.89614868164062 0.00919342041015625 18.8954963684082 0.009212493896484375 18.89484405517578 C 0.009311676025390625 18.89151382446289 0.009426116943359375 18.88783073425293 0.00952911376953125 18.88450050354004 C 0.009571075439453125 18.8831958770752 0.00958251953125 18.8828239440918 0.00962066650390625 18.88151931762695 C 0.009735107421875 18.87793350219727 0.0098419189453125 18.87448883056641 0.00995635986328125 18.87090492248535 C 0.009975433349609375 18.87025260925293 0.0099639892578125 18.8705997467041 0.00998687744140625 18.86994743347168 C 0.01009368896484375 18.86661911010742 0.01019668579101562 18.86338043212891 0.01030349731445312 18.86005210876465 C 0.01032257080078125 18.85939979553223 0.01037216186523438 18.85795402526855 0.0103912353515625 18.85730171203613 C 0.01050949096679688 18.85371780395508 0.01061248779296875 18.85048294067383 0.01073074340820312 18.84689903259277 C 0.010772705078125 18.84559440612793 0.01076507568359375 18.8458366394043 0.01081085205078125 18.84453201293945 C 0.0109100341796875 18.84146118164062 0.01100540161132812 18.83857536315918 0.0111083984375 18.83550453186035 C 0.0111541748046875 18.83419990539551 0.01115036010742188 18.83432579040527 0.01119232177734375 18.83302116394043 C 0.01130294799804688 18.8296947479248 0.0114288330078125 18.82603645324707 0.01154327392578125 18.82270812988281 C 0.011566162109375 18.82205772399902 0.01161575317382812 18.82051849365234 0.01163864135742188 18.81986618041992 C 0.01174545288085938 18.81679534912109 0.01185226440429688 18.81369209289551 0.01195907592773438 18.81062126159668 C 0.01198196411132812 18.80997085571289 0.01199722290039062 18.80952262878418 0.01202011108398438 18.80887031555176 C 0.01213455200195312 18.80554389953613 0.01226425170898438 18.8018684387207 0.01238250732421875 18.79854202270508 C 0.01242828369140625 18.79723930358887 0.01244354248046875 18.79679298400879 0.01248931884765625 18.79549026489258 C 0.01260757446289062 18.79216384887695 0.01273727416992188 18.78851699829102 0.01285934448242188 18.78519058227539 C 0.01288223266601562 18.7845401763916 0.01290512084960938 18.78386688232422 0.01293182373046875 18.7832145690918 C 0.01304244995117188 18.7801456451416 0.013153076171875 18.77703094482422 0.01326751708984375 18.77396202087402 C 0.0132904052734375 18.77331161499023 0.01333999633789062 18.77196311950684 0.01336288452148438 18.77131271362305 C 0.01349639892578125 18.76773262023926 0.01361465454101562 18.76453018188477 0.0137481689453125 18.76095008850098 C 0.0137939453125 18.75964736938477 0.0137939453125 18.75971984863281 0.01384353637695312 18.7584171295166 C 0.01395797729492188 18.75534820556641 0.01407241821289062 18.7523078918457 0.01418685913085938 18.74923896789551 C 0.01420974731445312 18.74858665466309 0.0142364501953125 18.7479419708252 0.01425933837890625 18.74728965759277 C 0.01438522338867188 18.74396705627441 0.01453399658203125 18.74013328552246 0.01465988159179688 18.7368106842041 C 0.01468658447265625 18.73616027832031 0.01475143432617188 18.73450469970703 0.01477432250976562 18.73385429382324 C 0.014892578125 18.73078727722168 0.0150146484375 18.72767066955566 0.01513290405273438 18.7246036529541 C 0.01515960693359375 18.72395324707031 0.01517486572265625 18.72360229492188 0.01519775390625 18.72295188903809 C 0.01533889770507812 18.71937370300293 0.01546478271484375 18.71624183654785 0.01560592651367188 18.7126636505127 C 0.015655517578125 18.71136093139648 0.01568222045898438 18.7106819152832 0.01573562622070312 18.70938110351562 C 0.01587677001953125 18.70580291748047 0.01600265502929688 18.70269012451172 0.01614761352539062 18.69911193847656 C 0.01617431640625 18.69846153259277 0.01618194580078125 18.69830894470215 0.01620864868164062 18.69765853881836 C 0.0163421630859375 18.6943359375 0.01645278930664062 18.69162750244141 0.0165863037109375 18.68830680847168 C 0.01661300659179688 18.68765640258789 0.01668167114257812 18.68601036071777 0.0167083740234375 18.68535804748535 C 0.016845703125 18.68203735351562 0.01699447631835938 18.67840576171875 0.01713180541992188 18.67508506774902 C 0.01718902587890625 18.67378425598145 0.01718521118164062 18.673828125 0.01723861694335938 18.67252731323242 C 0.01736831665039062 18.66946220397949 0.01747894287109375 18.66683197021484 0.017608642578125 18.66376686096191 C 0.01766204833984375 18.66246604919434 0.01766204833984375 18.66249847412109 0.0177154541015625 18.66119766235352 C 0.0178680419921875 18.65762138366699 0.01800918579101562 18.6543083190918 0.01816177368164062 18.65073394775391 C 0.0181884765625 18.65008354187012 0.01824188232421875 18.64887428283691 0.01826858520507812 18.64822387695312 C 0.01841354370117188 18.64490509033203 0.01854324340820312 18.64190673828125 0.01868438720703125 18.63858795166016 C 0.01871490478515625 18.63793754577637 0.01871871948242188 18.63784027099609 0.01874542236328125 18.6371898651123 C 0.01890182495117188 18.63361549377441 0.0190582275390625 18.63008499145508 0.01921463012695312 18.62651252746582 C 0.0192718505859375 18.62521171569824 0.01926803588867188 18.62533950805664 0.01932525634765625 18.62403869628906 C 0.01948165893554688 18.6204662322998 0.01964569091796875 18.61677932739258 0.019805908203125 18.61320495605469 C 0.01983642578125 18.6125545501709 0.01981735229492188 18.6129150390625 0.01984786987304688 18.61226463317871 C 0.01999664306640625 18.60894775390625 0.02016067504882812 18.60527038574219 0.02031326293945312 18.60195350646973 C 0.02034378051757812 18.60130310058594 0.02037811279296875 18.60054397583008 0.02040481567382812 18.59989356994629 C 0.02056884765625 18.59632110595703 0.0207366943359375 18.59260368347168 0.02090072631835938 18.58903121948242 C 0.02090072631835938 18.58903121948242 0.02098464965820312 18.58722496032715 0.02098464965820312 18.58722496032715 C 0.02112579345703125 18.58416366577148 0.0212860107421875 18.58071517944336 0.02143096923828125 18.5776538848877 C 0.02145767211914062 18.57700347900391 0.02149581909179688 18.57622909545898 0.02152633666992188 18.5755786895752 C 0.02169418334960938 18.57200813293457 0.02185440063476562 18.56856346130371 0.02202224731445312 18.56499099731445 C 0.02205276489257812 18.5643424987793 0.02210617065429688 18.563232421875 0.02213668823242188 18.56258392333984 C 0.0222930908203125 18.55926704406738 0.02245712280273438 18.55586433410645 0.022613525390625 18.55254936218262 C 0.02264404296875 18.55189895629883 0.02263259887695312 18.55215454101562 0.02266311645507812 18.55150413513184 C 0.02283477783203125 18.54793357849121 0.02300643920898438 18.54440116882324 0.0231781005859375 18.54083061218262 C 0.02324295043945312 18.53953170776367 0.02324676513671875 18.53940582275391 0.02331161499023438 18.53810691833496 C 0.0234832763671875 18.53453636169434 0.02365875244140625 18.53097534179688 0.023834228515625 18.52740669250488 C 0.023834228515625 18.52740669250488 0.02386474609375 18.52678680419922 0.02386474609375 18.52678680419922 C 0.02402496337890625 18.52347183227539 0.02419281005859375 18.52006912231445 0.02436065673828125 18.51675605773926 C 0.02439117431640625 18.51610565185547 0.02447128295898438 18.51450538635254 0.02450180053710938 18.51385688781738 C 0.02466964721679688 18.51054191589355 0.024871826171875 18.50651359558105 0.02503585815429688 18.50320053100586 C 0.02503585815429688 18.50320053100586 0.02509689331054688 18.50198936462402 0.02509689331054688 18.50198936462402 C 0.02527618408203125 18.49842262268066 0.02544021606445312 18.49518203735352 0.02562332153320312 18.49161529541016 C 0.02562332153320312 18.49161529541016 0.02570343017578125 18.49003982543945 0.02570343017578125 18.49003982543945 C 0.02588653564453125 18.48647308349609 0.02608489990234375 18.48260307312012 0.02626800537109375 18.47903633117676 C 0.02630233764648438 18.47838592529297 0.02632904052734375 18.47788619995117 0.02635955810546875 18.47723579406738 C 0.02654647827148438 18.47366905212402 0.02672195434570312 18.47030830383301 0.02690505981445312 18.46674156188965 C 0.02693939208984375 18.46609306335449 0.02691268920898438 18.46658515930176 0.026947021484375 18.4659366607666 C 0.02714920043945312 18.46211624145508 0.02732467651367188 18.4587345123291 0.02752685546875 18.45491409301758 C 0.02756118774414062 18.45426559448242 0.0276031494140625 18.45351028442383 0.02763748168945312 18.45286178588867 C 0.02783966064453125 18.44904136657715 0.02801895141601562 18.44561767578125 0.02822494506835938 18.44179916381836 C 0.02822494506835938 18.44179916381836 0.02825546264648438 18.44124412536621 0.02825546264648438 18.44124412536621 C 0.02843093872070312 18.43793296813965 0.02864837646484375 18.43391418457031 0.02882766723632812 18.43060302734375 C 0.02886199951171875 18.42995452880859 0.02890396118164062 18.42918395996094 0.02893829345703125 18.42853355407715 C 0.02913284301757812 18.42497062683105 0.029327392578125 18.42135810852051 0.02952194213867188 18.41779327392578 C 0.0295562744140625 18.41714477539062 0.02959060668945312 18.41656684875488 0.02962493896484375 18.41591835021973 C 0.02979278564453125 18.41286277770996 0.02999114990234375 18.40924263000488 0.03016281127929688 18.40618896484375 C 0.0301971435546875 18.40554046630859 0.03022003173828125 18.40509223937988 0.0302581787109375 18.40444374084473 C 0.03045654296875 18.40088081359863 0.03066253662109375 18.39714050292969 0.03086090087890625 18.39357757568359 C 0.0308990478515625 18.39292907714844 0.03093719482421875 18.39226341247559 0.03097152709960938 18.39161491394043 C 0.0311737060546875 18.38805198669434 0.03137969970703125 18.38433456420898 0.03158187866210938 18.38077163696289 C 0.03162002563476562 18.38012313842773 0.03155899047851562 18.38117218017578 0.03159713745117188 18.38052368164062 C 0.0318145751953125 18.37670707702637 0.032012939453125 18.37319946289062 0.03223037719726562 18.369384765625 C 0.03226852416992188 18.36873626708984 0.03231430053710938 18.36789703369141 0.03235244750976562 18.36724853515625 C 0.03256988525390625 18.36343383789062 0.03276824951171875 18.3599853515625 0.032989501953125 18.35616874694824 C 0.032989501953125 18.35616874694824 0.03299331665039062 18.35612678527832 0.03299331665039062 18.35612678527832 C 0.03319931030273438 18.35256576538086 0.03340911865234375 18.34893035888672 0.03361892700195312 18.34536933898926 C 0.03365707397460938 18.3447208404541 0.03372573852539062 18.343505859375 0.03376388549804688 18.34285736083984 C 0.03397369384765625 18.33929634094238 0.0341644287109375 18.33602523803711 0.03437423706054688 18.33246612548828 C 0.03445053100585938 18.3311710357666 0.0344390869140625 18.33139610290527 0.034515380859375 18.33010101318359 C 0.03469467163085938 18.32704925537109 0.0348663330078125 18.32419395446777 0.0350494384765625 18.32114219665527 C 0.03508758544921875 18.32049560546875 0.03515243530273438 18.31935882568359 0.03519439697265625 18.31871032714844 C 0.03540420532226562 18.31515121459961 0.03560638427734375 18.31179809570312 0.03582000732421875 18.3082389831543 C 0.03586196899414062 18.30759048461914 0.03592300415039062 18.3065357208252 0.0359649658203125 18.30588722229004 C 0.036163330078125 18.30258369445801 0.03635406494140625 18.29941368103027 0.03655624389648438 18.29610824584961 C 0.03659439086914062 18.29546165466309 0.03659439086914062 18.29546737670898 0.0366363525390625 18.29481887817383 C 0.03685379028320312 18.29126167297363 0.03707504272460938 18.28764533996582 0.03729248046875 18.28408622741699 C 0.03733062744140625 18.28343963623047 0.03740310668945312 18.28232383728027 0.03744125366210938 18.28167724609375 C 0.03765869140625 18.27811813354492 0.03788375854492188 18.27452659606934 0.03810501098632812 18.27096939086914 C 0.03814315795898438 18.27032279968262 0.03812789916992188 18.27057456970215 0.03816986083984375 18.26992797851562 C 0.0383758544921875 18.26662445068359 0.03859710693359375 18.26308441162109 0.0388031005859375 18.25978088378906 C 0.03884506225585938 18.25913429260254 0.03889846801757812 18.2582893371582 0.03893661499023438 18.25764274597168 C 0.03917694091796875 18.25383186340332 0.03939056396484375 18.25043487548828 0.03963470458984375 18.24662590026855 C 0.03963470458984375 18.24662590026855 0.03969192504882812 18.24567604064941 0.03969192504882812 18.24567604064941 C 0.0399017333984375 18.24237442016602 0.04013824462890625 18.23868942260742 0.04034805297851562 18.23538970947266 C 0.0403900146484375 18.2347412109375 0.04042816162109375 18.2341480255127 0.04047012329101562 18.23350143432617 C 0.04069900512695312 18.22994613647461 0.04092025756835938 18.22646903991699 0.0411529541015625 18.22291564941406 C 0.04119491577148438 18.22226715087891 0.04126358032226562 18.22119522094727 0.0413055419921875 18.22054862976074 C 0.0415191650390625 18.21724700927734 0.04173660278320312 18.21391677856445 0.04195022583007812 18.21061515808105 C 0.0419921875 18.20996856689453 0.04198074340820312 18.21015357971191 0.042022705078125 18.20950698852539 C 0.04227066040039062 18.20569801330566 0.04248809814453125 18.20241165161133 0.0427398681640625 18.1986026763916 C 0.04278182983398438 18.19795608520508 0.04283523559570312 18.19713973999023 0.042877197265625 18.19649314880371 C 0.04336166381835938 18.18913269042969 0.04384231567382812 18.18193054199219 0.04433822631835938 18.1745719909668 C 0.04438018798828125 18.17392539978027 0.04445266723632812 18.1728630065918 0.04449462890625 18.17221641540527 C 0.04475021362304688 18.16841125488281 0.04496383666992188 18.16522598266602 0.04522323608398438 18.16142082214355 C 0.04526901245117188 18.16077423095703 0.04526138305664062 18.16085052490234 0.04530715942382812 18.16020393371582 C 0.04552841186523438 18.15690612792969 0.04576492309570312 18.15343856811523 0.04599380493164062 18.1501407623291 C 0.0460357666015625 18.14949417114258 0.04608154296875 18.14883995056152 0.04612350463867188 18.148193359375 C 0.04636764526367188 18.1446418762207 0.0466156005859375 18.14106941223145 0.0468597412109375 18.13751792907715 C 0.04690170288085938 18.13687324523926 0.04695892333984375 18.13605499267578 0.04700469970703125 18.13541030883789 C 0.04723358154296875 18.13211250305176 0.04746627807617188 18.12873840332031 0.04769515991210938 18.12544250488281 C 0.04774093627929688 18.12479591369629 0.04773330688476562 18.12488174438477 0.04777908325195312 18.12423515319824 C 0.04804611206054688 18.12043190002441 0.04827117919921875 18.11721420288086 0.0485382080078125 18.11341094970703 C 0.048583984375 18.11276435852051 0.04864883422851562 18.11184501647949 0.04869461059570312 18.11119842529297 C 0.0492095947265625 18.10384750366211 0.04973602294921875 18.09643745422363 0.050262451171875 18.08908843994141 C 0.0503082275390625 18.08844184875488 0.05035018920898438 18.08784103393555 0.05039596557617188 18.08719635009766 C 0.05067062377929688 18.08339500427246 0.05091094970703125 18.08003807067871 0.05118560791015625 18.07623672485352 C 0.05123138427734375 18.07559013366699 0.05122756958007812 18.07563781738281 0.05127334594726562 18.07499313354492 C 0.0515289306640625 18.07144546508789 0.05176162719726562 18.06826972961426 0.0520172119140625 18.06472206115723 C 0.05206680297851562 18.06407737731934 0.05208587646484375 18.06382751464844 0.05213165283203125 18.06318092346191 C 0.05239105224609375 18.05963516235352 0.05266952514648438 18.05579376220703 0.05292892456054688 18.05224609375 C 0.052978515625 18.05160140991211 0.05302047729492188 18.05102920532227 0.05306625366210938 18.05038452148438 C 0.05331039428710938 18.04709053039551 0.05356979370117188 18.04353332519531 0.05381393432617188 18.04024124145508 C 0.053863525390625 18.03959655761719 0.05385208129882812 18.03974342346191 0.05390167236328125 18.03909873962402 C 0.05418014526367188 18.03529930114746 0.05442047119140625 18.03208351135254 0.0547027587890625 18.02828598022461 C 0.05475234985351562 18.02764129638672 0.05482864379882812 18.02663612365723 0.05487442016601562 18.02599143981934 C 0.05542373657226562 18.01864814758301 0.05598068237304688 18.01123428344727 0.05653762817382812 18.00389289855957 C 0.05658721923828125 18.00324821472168 0.05661773681640625 18.00285339355469 0.05666732788085938 18.0022087097168 C 0.05695724487304688 17.9984130859375 0.05723190307617188 17.99478149414062 0.05752182006835938 17.99098587036133 C 0.0575714111328125 17.99034118652344 0.057525634765625 17.9909496307373 0.05757522583007812 17.99030494689941 C 0.0578460693359375 17.98676109313965 0.05811309814453125 17.98330497741699 0.05838394165039062 17.97976112365723 C 0.05843353271484375 17.97911643981934 0.0584716796875 17.97863960266113 0.05852127075195312 17.97799491882324 C 0.05879592895507812 17.97445297241211 0.05908584594726562 17.97068786621094 0.05936050415039062 17.9671459197998 C 0.05941009521484375 17.96650123596191 0.05945205688476562 17.96599388122559 0.05950164794921875 17.96535110473633 C 0.05975723266601562 17.96206092834473 0.06002426147460938 17.95865249633789 0.06027984619140625 17.95536422729492 C 0.060333251953125 17.95471954345703 0.06033706665039062 17.95463371276855 0.06039047241210938 17.9539909362793 C 0.06068801879882812 17.9501953125 0.06093978881835938 17.94696426391602 0.06124114990234375 17.94317054748535 C 0.06129074096679688 17.94252586364746 0.0613555908203125 17.94172477722168 0.06140518188476562 17.94108200073242 C 0.06168746948242188 17.93754005432129 0.06197357177734375 17.93389701843262 0.062255859375 17.93035697937012 C 0.062255859375 17.93035697937012 0.06229782104492188 17.92986869812012 0.06229782104492188 17.92986869812012 C 0.0625762939453125 17.92632865905762 0.06286239624023438 17.92276573181152 0.06314849853515625 17.91922569274902 C 0.06319808959960938 17.91858291625977 0.06328201293945312 17.91754722595215 0.06333541870117188 17.91690254211426 C 0.06363677978515625 17.91311073303223 0.06389999389648438 17.90985870361328 0.064208984375 17.90606689453125 C 0.06425857543945312 17.90542221069336 0.06423187255859375 17.9057502746582 0.0642852783203125 17.90510559082031 C 0.06455230712890625 17.90181922912598 0.064849853515625 17.89815521240234 0.06511688232421875 17.89487075805664 C 0.0651702880859375 17.89422607421875 0.065216064453125 17.89363098144531 0.06526947021484375 17.89298820495605 C 0.06555938720703125 17.88945007324219 0.06586074829101562 17.8857421875 0.06615066528320312 17.88220405578613 C 0.06620407104492188 17.88156127929688 0.06624221801757812 17.88109397888184 0.06629562377929688 17.88044929504395 C 0.06658554077148438 17.87691307067871 0.066864013671875 17.8735408782959 0.06715774536132812 17.87000274658203 C 0.06721115112304688 17.86935997009277 0.06717300415039062 17.86984062194824 0.06722640991210938 17.86919784545898 C 0.06753921508789062 17.86540794372559 0.06782150268554688 17.86198806762695 0.06813812255859375 17.85819816589355 C 0.0681915283203125 17.8575553894043 0.0682525634765625 17.8568286895752 0.06830596923828125 17.85618591308594 C 0.06891632080078125 17.8488597869873 0.06952667236328125 17.84162330627441 0.0701446533203125 17.83429908752441 C 0.07020187377929688 17.83365631103516 0.07028579711914062 17.8326301574707 0.070343017578125 17.83198738098145 C 0.0706634521484375 17.82819938659668 0.07094573974609375 17.82485008239746 0.07126998901367188 17.8210620880127 C 0.07132339477539062 17.82041931152344 0.07125473022460938 17.82122421264648 0.07131195068359375 17.82058143615723 C 0.07163238525390625 17.81679344177246 0.07191085815429688 17.81356811523438 0.072235107421875 17.80978202819824 C 0.07229232788085938 17.80913925170898 0.07231521606445312 17.80886459350586 0.07236862182617188 17.8082218170166 C 0.07267379760742188 17.8046875 0.0730133056640625 17.80073928833008 0.0733184814453125 17.79720687866211 C 0.07337570190429688 17.79656410217285 0.07338714599609375 17.79642295837402 0.07344436645507812 17.79578018188477 C 0.07374954223632812 17.7922477722168 0.0740509033203125 17.78876876831055 0.07435989379882812 17.78523635864258 C 0.07435989379882812 17.78523635864258 0.07443618774414062 17.78433227539062 0.07443618774414062 17.78433227539062 C 0.07476806640625 17.78054618835449 0.0750732421875 17.77702522277832 0.075408935546875 17.77324104309082 C 0.07546234130859375 17.77259826660156 0.07550048828125 17.77217864990234 0.07555770874023438 17.77153587341309 C 0.07622146606445312 17.76396751403809 0.07688140869140625 17.75651741027832 0.07755279541015625 17.74895095825195 C 0.07761001586914062 17.7483081817627 0.07761383056640625 17.74827194213867 0.07767105102539062 17.74763107299805 C 0.07800674438476562 17.74384689331055 0.07833480834960938 17.74016761779785 0.07867431640625 17.73638534545898 C 0.07873153686523438 17.73574256896973 0.07869720458984375 17.73613929748535 0.07875442504882812 17.73549652099609 C 0.079071044921875 17.73196601867676 0.0793914794921875 17.72840881347656 0.0797119140625 17.72487831115723 C 0.07976913452148438 17.7242374420166 0.07976913452148438 17.72422027587891 0.07983016967773438 17.72357749938965 C 0.08014678955078125 17.72004699707031 0.08051681518554688 17.7159481048584 0.080841064453125 17.71241760253906 C 0.080841064453125 17.71241760253906 0.08095932006835938 17.71110916137695 0.08095932006835938 17.71110916137695 C 0.08127975463867188 17.70758056640625 0.08162689208984375 17.70377349853516 0.08195114135742188 17.70024681091309 C 0.08195114135742188 17.70024681091309 0.082000732421875 17.6996898651123 0.082000732421875 17.6996898651123 C 0.08234786987304688 17.69590950012207 0.08268356323242188 17.69225311279297 0.08303070068359375 17.68847274780273 C 0.08308792114257812 17.68782997131348 0.08312606811523438 17.68743133544922 0.08318710327148438 17.68679046630859 C 0.08388137817382812 17.67923164367676 0.0845489501953125 17.67204475402832 0.08525466918945312 17.66448783874512 C 0.08531570434570312 17.66384506225586 0.08535385131835938 17.66340637207031 0.08541488647460938 17.66276550292969 C 0.0857696533203125 17.65898704528809 0.08610916137695312 17.65533828735352 0.08646392822265625 17.65155982971191 C 0.08652496337890625 17.65091896057129 0.08643341064453125 17.65188598632812 0.08649444580078125 17.65124320983887 C 0.08684921264648438 17.6474666595459 0.08716583251953125 17.64413452148438 0.0875244140625 17.64035797119141 C 0.08758163452148438 17.63971519470215 0.08761215209960938 17.63942909240723 0.08766937255859375 17.6387882232666 C 0.0880279541015625 17.635009765625 0.08837509155273438 17.63136291503906 0.08873367309570312 17.62758636474609 C 0.08873367309570312 17.62758636474609 0.08881378173828125 17.62673950195312 0.08881378173828125 17.62673950195312 C 0.08915328979492188 17.62321472167969 0.0895233154296875 17.61933326721191 0.0898590087890625 17.61580848693848 C 0.0898590087890625 17.61580848693848 0.08993911743164062 17.61497688293457 0.08993911743164062 17.61497688293457 C 0.090301513671875 17.61120223999023 0.09065628051757812 17.6075382232666 0.0910186767578125 17.60376358032227 C 0.0910797119140625 17.60312271118164 0.091094970703125 17.60298156738281 0.091156005859375 17.60234069824219 C 0.09188461303710938 17.59478950500488 0.092620849609375 17.58724403381348 0.09335708618164062 17.57969665527344 C 0.09335708618164062 17.57969665527344 0.0934906005859375 17.57832336425781 0.0934906005859375 17.57832336425781 C 0.09423065185546875 17.57077407836914 0.09498977661132812 17.56303787231445 0.09573745727539062 17.55549240112305 C 0.09580230712890625 17.55485153198242 0.0957794189453125 17.55506896972656 0.09584426879882812 17.55442810058594 C 0.09619140625 17.55090713500977 0.09659957885742188 17.54679679870605 0.09695053100585938 17.54327583312988 C 0.09695053100585938 17.54327583312988 0.09709548950195312 17.54182434082031 0.09709548950195312 17.54182434082031 C 0.09747314453125 17.53805160522461 0.09781265258789062 17.53463935852051 0.0981903076171875 17.53086853027344 C 0.0981903076171875 17.53086853027344 0.09821701049804688 17.5306282043457 0.09821701049804688 17.5306282043457 C 0.09859466552734375 17.52685737609863 0.09900283813476562 17.52279090881348 0.09938430786132812 17.51902008056641 C 0.09944915771484375 17.51838111877441 0.0994110107421875 17.51874923706055 0.09947586059570312 17.51810836791992 C 0.1002349853515625 17.51056861877441 0.101043701171875 17.50261878967285 0.1018142700195312 17.49508094787598 C 0.1018142700195312 17.49508094787598 0.1019248962402344 17.49397850036621 0.1019248962402344 17.49397850036621 C 0.10272216796875 17.4861888885498 0.1035118103027344 17.4784984588623 0.1043167114257812 17.47071266174316 C 0.1043167114257812 17.47071266174316 0.1043739318847656 17.47016906738281 0.1043739318847656 17.47016906738281 C 0.1047897338867188 17.46615028381348 0.1051750183105469 17.46242141723633 0.1055946350097656 17.45840263366699 C 0.1055946350097656 17.45840263366699 0.1056175231933594 17.45818519592285 0.1056175231933594 17.45818519592285 C 0.1060333251953125 17.45416641235352 0.1064224243164062 17.450439453125 0.1068458557128906 17.44642066955566 C 0.1068458557128906 17.44642066955566 0.1068649291992188 17.44621849060059 0.1068649291992188 17.44621849060059 C 0.1072578430175781 17.44245338439941 0.1076812744140625 17.43842506408691 0.1080780029296875 17.43465805053711 C 0.1081466674804688 17.43401908874512 0.1081199645996094 17.43428421020508 0.108184814453125 17.43364524841309 C 0.108978271484375 17.42611312866211 0.1098060607910156 17.41829490661621 0.1106109619140625 17.4107666015625 C 0.1106109619140625 17.4107666015625 0.1107444763183594 17.40950775146484 0.1107444763183594 17.40950775146484 C 0.111572265625 17.40172958374023 0.1123924255371094 17.39407348632812 0.1132316589355469 17.38629722595215 C 0.1132316589355469 17.38629722595215 0.1132736206054688 17.38588523864746 0.1132736206054688 17.38588523864746 C 0.11370849609375 17.38187026977539 0.1140975952148438 17.37827682495117 0.114532470703125 17.37426376342773 C 0.114532470703125 17.37426376342773 0.1146202087402344 17.37346458435059 0.1146202087402344 17.37346458435059 C 0.1149978637695312 17.36995315551758 0.1154403686523438 17.36590385437012 0.1158218383789062 17.36239242553711 C 0.1158218383789062 17.36239242553711 0.1158905029296875 17.36177253723145 0.1158905029296875 17.36177253723145 C 0.1162986755371094 17.35801124572754 0.1167030334472656 17.35432434082031 0.1171150207519531 17.35056304931641 C 0.1171875 17.34992408752441 0.1172142028808594 17.34968185424805 0.1172828674316406 17.34904289245605 C 0.1181068420410156 17.34152221679688 0.1189346313476562 17.33403778076172 0.1197662353515625 17.32651901245117 C 0.1197662353515625 17.32651901245117 0.1199073791503906 17.32526779174805 0.1199073791503906 17.32526779174805 C 0.1207389831542969 17.3177490234375 0.1215934753417969 17.31010437011719 0.1224365234375 17.30258750915527 C 0.1225090026855469 17.30195045471191 0.1225128173828125 17.30191802978516 0.1225814819335938 17.3012809753418 C 0.1230049133300781 17.29752159118652 0.1234359741210938 17.29367065429688 0.1238632202148438 17.28991317749023 C 0.1238632202148438 17.28991317749023 0.1239051818847656 17.28951263427734 0.1239051818847656 17.28951263427734 C 0.124359130859375 17.2855052947998 0.1247520446777344 17.28203201293945 0.1252059936523438 17.27802467346191 C 0.1252059936523438 17.27802467346191 0.1252479553222656 17.27764511108398 0.1252479553222656 17.27764511108398 C 0.1257057189941406 17.27363777160645 0.1261062622070312 17.27009010314941 0.1265640258789062 17.26608467102051 C 0.1266365051269531 17.26544570922852 0.1265869140625 17.26589965820312 0.1266593933105469 17.26526260375977 C 0.1275138854980469 17.25774955749512 0.1284294128417969 17.24979209899902 0.1292953491210938 17.24228286743164 C 0.1292953491210938 17.24228286743164 0.129425048828125 17.24113845825195 0.129425048828125 17.24113845825195 C 0.1302909851074219 17.23362922668457 0.1311874389648438 17.22591590881348 0.1320610046386719 17.21840858459473 C 0.1321372985839844 17.21777153015137 0.1321296691894531 17.21782302856445 0.1322059631347656 17.21718597412109 C 0.1326408386230469 17.21343231201172 0.1330757141113281 17.20970726013184 0.1335182189941406 17.20595550537109 C 0.1335182189941406 17.20595550537109 0.1336174011230469 17.20509719848633 0.1336174011230469 17.20509719848633 C 0.1340293884277344 17.20159530639648 0.1344795227050781 17.19774436950684 0.1348915100097656 17.19424247741699 C 0.1348915100097656 17.19424247741699 0.1349945068359375 17.19338226318359 0.1349945068359375 17.19338226318359 C 0.13543701171875 17.18963050842285 0.1358604431152344 17.18603324890137 0.1363067626953125 17.18228149414062 C 0.136383056640625 17.18164443969727 0.1364173889160156 17.18135452270508 0.1364898681640625 17.18071746826172 C 0.1373786926269531 17.17321586608887 0.1382179260253906 17.16617012023926 0.1391181945800781 17.15867042541504 C 0.1392707824707031 17.15739822387695 0.1392059326171875 17.15790939331055 0.1393585205078125 17.15663528442383 C 0.1402587890625 17.14913558959961 0.1411247253417969 17.14193344116211 0.1420326232910156 17.13443565368652 C 0.1421089172363281 17.13379859924316 0.1421165466308594 17.13372230529785 0.1421966552734375 17.13308715820312 C 0.1426506042480469 17.12933731079102 0.1430931091308594 17.12566375732422 0.1435508728027344 17.12191581726074 C 0.1435508728027344 17.12191581726074 0.143646240234375 17.1211109161377 0.143646240234375 17.1211109161377 C 0.144073486328125 17.11761474609375 0.1445465087890625 17.11373138427734 0.1449737548828125 17.11023330688477 C 0.1449737548828125 17.11023330688477 0.1450729370117188 17.10943031311035 0.1450729370117188 17.10943031311035 C 0.1455307006835938 17.10568237304688 0.14599609375 17.10189056396484 0.146453857421875 17.09814453125 C 0.1465339660644531 17.09750938415527 0.146514892578125 17.09765434265137 0.1465950012207031 17.09701728820801 C 0.1475143432617188 17.08952522277832 0.1484832763671875 17.08168792724609 0.1494102478027344 17.07419776916504 C 0.1494102478027344 17.07419776916504 0.1495361328125 17.07319450378418 0.1495361328125 17.07319450378418 C 0.1504669189453125 17.06570625305176 0.1514549255371094 17.05778121948242 0.1523933410644531 17.05029487609863 C 0.1524734497070312 17.04965782165527 0.1524276733398438 17.05001640319824 0.1525077819824219 17.04938125610352 C 0.1529769897460938 17.0456371307373 0.1534690856933594 17.04170799255371 0.1539421081542969 17.03796577453613 C 0.1539421081542969 17.03796577453613 0.1540145874023438 17.03737449645996 0.1540145874023438 17.03737449645996 C 0.1544876098632812 17.03363227844238 0.1549835205078125 17.02970886230469 0.15545654296875 17.02596664428711 C 0.15545654296875 17.02596664428711 0.155487060546875 17.02572631835938 0.155487060546875 17.02572631835938 C 0.1559944152832031 17.0217342376709 0.1564674377441406 17.01800155639648 0.1569747924804688 17.01400947570801 C 0.1570549011230469 17.01337432861328 0.156951904296875 17.01417541503906 0.1570358276367188 17.01354026794434 C 0.15802001953125 17.00580787658691 0.15899658203125 16.9981632232666 0.1599884033203125 16.99043464660645 C 0.1599884033203125 16.99043464660645 0.1601333618164062 16.98932647705078 0.1601333618164062 16.98932647705078 C 0.1610946655273438 16.98184776306152 0.1620559692382812 16.97439765930176 0.16302490234375 16.96692085266113 C 0.1631088256835938 16.96628570556641 0.1631622314453125 16.96587181091309 0.1632423400878906 16.96523666381836 C 0.163726806640625 16.96149826049805 0.1642112731933594 16.95778656005859 0.1646995544433594 16.95405006408691 C 0.1646995544433594 16.95405006408691 0.1647224426269531 16.95386695861816 0.1647224426269531 16.95386695861816 C 0.1652107238769531 16.95013046264648 0.1657218933105469 16.94622230529785 0.1662101745605469 16.94248390197754 C 0.1662101745605469 16.94248390197754 0.1662979125976562 16.94181251525879 0.1662979125976562 16.94181251525879 C 0.1668205261230469 16.93782615661621 0.1672706604003906 16.93440437316895 0.1677932739257812 16.930419921875 C 0.167877197265625 16.92978477478027 0.1678237915039062 16.93019866943359 0.16790771484375 16.92956352233887 C 0.1688919067382812 16.92209053039551 0.1699409484863281 16.91415786743164 0.1709327697753906 16.90668869018555 C 0.1709327697753906 16.90668869018555 0.1710777282714844 16.90560913085938 0.1710777282714844 16.90560913085938 C 0.1720695495605469 16.89813995361328 0.1731147766113281 16.89031600952148 0.1741180419921875 16.88284873962402 C 0.1742019653320312 16.8822135925293 0.1741676330566406 16.88245964050293 0.17425537109375 16.8818244934082 C 0.1747550964355469 16.87809181213379 0.175262451171875 16.87431335449219 0.1757659912109375 16.87058067321777 C 0.1757659912109375 16.87058067321777 0.1758766174316406 16.86975288391113 0.1758766174316406 16.86975288391113 C 0.1763458251953125 16.86626815795898 0.1768684387207031 16.86240768432617 0.1773414611816406 16.85892486572266 C 0.1773414611816406 16.85892486572266 0.1774520874023438 16.85809707641602 0.1774520874023438 16.85809707641602 C 0.1779899597167969 16.85411643981934 0.1784477233886719 16.85074996948242 0.1789894104003906 16.84677124023438 C 0.1790771484375 16.84613800048828 0.1790199279785156 16.84654426574707 0.179107666015625 16.84591102600098 C 0.1801223754882812 16.83844757080078 0.1811904907226562 16.83063507080078 0.1822166442871094 16.82317543029785 C 0.1822166442871094 16.82317543029785 0.1823883056640625 16.8219165802002 0.1823883056640625 16.8219165802002 C 0.18341064453125 16.81445693969727 0.184478759765625 16.80672073364258 0.1855125427246094 16.79926300048828 C 0.1856002807617188 16.79862976074219 0.1855659484863281 16.79887771606445 0.1856536865234375 16.79824447631836 C 0.1867218017578125 16.7905387878418 0.1877899169921875 16.78286170959473 0.1888656616210938 16.77515983581543 C 0.1888656616210938 16.77515983581543 0.188934326171875 16.7746753692627 0.188934326171875 16.7746753692627 C 0.1894912719726562 16.77070045471191 0.1899833679199219 16.76717567443848 0.1905441284179688 16.7632007598877 C 0.1905441284179688 16.7632007598877 0.1906471252441406 16.76246070861816 0.1906471252441406 16.76246070861816 C 0.1917304992675781 16.75475883483887 0.1928062438964844 16.74713325500488 0.1938972473144531 16.73943519592285 C 0.1938972473144531 16.73943519592285 0.1940078735351562 16.73864555358887 0.1940078735351562 16.73864555358887 C 0.1950645446777344 16.7311954498291 0.1962242126464844 16.72306060791016 0.1972885131835938 16.71561241149902 C 0.1973762512207031 16.71498107910156 0.1972923278808594 16.71558380126953 0.1973800659179688 16.71495056152344 C 0.198516845703125 16.70700836181641 0.1995658874511719 16.69971084594727 0.2007102966308594 16.69177055358887 C 0.2007102966308594 16.69177055358887 0.2007904052734375 16.69120788574219 0.2007904052734375 16.69120788574219 C 0.2013626098632812 16.6872386932373 0.2018585205078125 16.68381309509277 0.2024345397949219 16.67984390258789 C 0.2025260925292969 16.67921257019043 0.2024803161621094 16.67954254150391 0.2025718688964844 16.67890930175781 C 0.2036857604980469 16.67121887207031 0.2047805786132812 16.66368293762207 0.2059059143066406 16.65599632263184 C 0.2059059143066406 16.65599632263184 0.2059974670410156 16.65535163879395 0.2059974670410156 16.65535163879395 C 0.207122802734375 16.64766311645508 0.2082252502441406 16.64015007019043 0.2093582153320312 16.63246536254883 C 0.2094497680664062 16.63183403015137 0.2094192504882812 16.63204193115234 0.2095146179199219 16.63141059875488 C 0.2106475830078125 16.62372589111328 0.2117958068847656 16.6159496307373 0.2129402160644531 16.60826873779297 C 0.2129402160644531 16.60826873779297 0.2129783630371094 16.60799598693848 0.2129783630371094 16.60799598693848 C 0.2135696411132812 16.60403060913086 0.2141265869140625 16.60028457641602 0.2147178649902344 16.5963191986084 C 0.2147178649902344 16.5963191986084 0.2147674560546875 16.59599685668945 0.2147674560546875 16.59599685668945 C 0.2159156799316406 16.58831596374512 0.2170906066894531 16.58047485351562 0.2182464599609375 16.57279777526855 C 0.2182464599609375 16.57279777526855 0.2183723449707031 16.57196426391602 0.2183723449707031 16.57196426391602 C 0.2195281982421875 16.56428718566895 0.2206916809082031 16.55659484863281 0.2218551635742188 16.54892158508301 C 0.2218551635742188 16.54892158508301 0.2219276428222656 16.54843521118164 0.2219276428222656 16.54843521118164 C 0.2249336242675781 16.52863121032715 0.2278938293457031 16.50935173034668 0.2309608459472656 16.48956680297852 C 0.2309608459472656 16.48956680297852 0.2310600280761719 16.48891448974609 0.2310600280761719 16.48891448974609 C 0.2322883605957031 16.48100090026855 0.2334480285644531 16.47355079650879 0.2346839904785156 16.46564102172852 C 0.2346839904785156 16.46564102172852 0.2347145080566406 16.46543121337891 0.2347145080566406 16.46543121337891 C 0.2359504699707031 16.45752143859863 0.2371635437011719 16.44978332519531 0.2384109497070312 16.44187545776367 C 0.2384109497070312 16.44187545776367 0.2384300231933594 16.4417610168457 0.2384300231933594 16.4417610168457 C 0.24029541015625 16.42989921569824 0.2421646118164062 16.41810607910156 0.2440567016601562 16.40625190734863 C 0.2440567016601562 16.40625190734863 0.2440643310546875 16.40620040893555 0.2440643310546875 16.40620040893555 C 0.2453231811523438 16.3982982635498 0.2465705871582031 16.3905143737793 0.2478370666503906 16.38261413574219 C 0.2478370666503906 16.38261413574219 0.24786376953125 16.38245582580566 0.24786376953125 16.38245582580566 C 0.2523078918457031 16.35480690002441 0.2567825317382812 16.32732582092285 0.2613410949707031 16.29971694946289 C 0.2613410949707031 16.29971694946289 0.2613639831542969 16.29957008361816 0.2613639831542969 16.29957008361816 C 0.7087554931640625 13.58989143371582 1.714725494384766 11.06876564025879 3.157119750976562 8.858177185058594 C 3.157119750976562 8.858177185058594 3.157222747802734 8.858022689819336 3.157222747802734 8.858022689819336 C 3.161422729492188 8.851587295532227 3.165500640869141 8.845346450805664 3.169704437255859 8.838916778564453 C 3.169704437255859 8.838916778564453 3.169841766357422 8.838708877563477 3.169841766357422 8.838708877563477 C 3.174045562744141 8.832279205322266 3.178047180175781 8.826169967651367 3.182262420654297 8.819746017456055 C 3.182598114013672 8.819234848022461 3.182163238525391 8.81989860534668 3.182498931884766 8.819387435913086 C 3.188819885253906 8.809749603271484 3.194953918457031 8.8004150390625 3.201290130615234 8.790788650512695 C 3.201625823974609 8.790279388427734 3.201217651367188 8.790897369384766 3.201553344726562 8.790386199951172 C 3.205646514892578 8.784170150756836 3.209476470947266 8.778360366821289 3.213577270507812 8.772148132324219 C 3.213916778564453 8.771638870239258 3.214263916015625 8.771110534667969 3.214599609375 8.770601272583008 C 3.21856689453125 8.764589309692383 3.222278594970703 8.758975982666016 3.226253509521484 8.752969741821289 C 3.226589202880859 8.752460479736328 3.226840972900391 8.752082824707031 3.227176666259766 8.75157356262207 C 3.229164123535156 8.748569488525391 3.231082916259766 8.745672225952148 3.233074188232422 8.742670059204102 C 3.233074188232422 8.742670059204102 3.233322143554688 8.74229621887207 3.233322143554688 8.74229621887207 C 3.235309600830078 8.739294052124023 3.237041473388672 8.736682891845703 3.239032745361328 8.733682632446289 C 3.239032745361328 8.733682632446289 3.239757537841797 8.73259162902832 3.239757537841797 8.73259162902832 C 3.241615295410156 8.729791641235352 3.243755340576172 8.726568222045898 3.245613098144531 8.72376823425293 C 3.245952606201172 8.723258972167969 3.245948791503906 8.723262786865234 3.246288299560547 8.722753524780273 C 3.248279571533203 8.719753265380859 3.250194549560547 8.716875076293945 3.252189636230469 8.713876724243164 C 3.252189636230469 8.713876724243164 3.252292633056641 8.713722229003906 3.252292633056641 8.713722229003906 C 3.254283905029297 8.710725784301758 3.256328582763672 8.70765495300293 3.258323669433594 8.704658508300781 C 3.258323669433594 8.704658508300781 3.258995056152344 8.703653335571289 3.258995056152344 8.703653335571289 C 3.262985229492188 8.697658538818359 3.267024993896484 8.69160270690918 3.271022796630859 8.685615539550781 C 3.2713623046875 8.68510627746582 3.271408081054688 8.685039520263672 3.271747589111328 8.684530258178711 C 3.273746490478516 8.681535720825195 3.275665283203125 8.678667068481445 3.277667999267578 8.67567253112793 C 3.277667999267578 8.67567253112793 3.278205871582031 8.674863815307617 3.278205871582031 8.674863815307617 C 3.280075073242188 8.67207145690918 3.282024383544922 8.669155120849609 3.283893585205078 8.666362762451172 C 3.283893585205078 8.666362762451172 3.284431457519531 8.665563583374023 3.284431457519531 8.665563583374023 C 3.286434173583984 8.662570953369141 3.288265228271484 8.659839630126953 3.290267944335938 8.656848907470703 C 3.290607452392578 8.656339645385742 3.290935516357422 8.655855178833008 3.291275024414062 8.65534782409668 C 3.295150756835938 8.649566650390625 3.299118041992188 8.643651962280273 3.303001403808594 8.637874603271484 C 3.303340911865234 8.637367248535156 3.303699493408203 8.636835098266602 3.304042816162109 8.636327743530273 C 3.306049346923828 8.633338928222656 3.307857513427734 8.630649566650391 3.309867858886719 8.627662658691406 C 3.309867858886719 8.627662658691406 3.310146331787109 8.627250671386719 3.310146331787109 8.627250671386719 C 3.311885833740234 8.624662399291992 3.313774108886719 8.621860504150391 3.315517425537109 8.619272232055664 C 3.31585693359375 8.618766784667969 3.316688537597656 8.617530822753906 3.317031860351562 8.617023468017578 C 3.318775177001953 8.614437103271484 3.320758819580078 8.611495971679688 3.322502136230469 8.608909606933594 C 3.322845458984375 8.608402252197266 3.323169708251953 8.607921600341797 3.323509216308594 8.607416152954102 C 3.325119018554688 8.60502815246582 3.326984405517578 8.602264404296875 3.328598022460938 8.599878311157227 C 3.328941345214844 8.599372863769531 3.329200744628906 8.598987579345703 3.329540252685547 8.598480224609375 C 3.3314208984375 8.595697402954102 3.333446502685547 8.592702865600586 3.3353271484375 8.589920043945312 C 3.335670471191406 8.589414596557617 3.335941314697266 8.589014053344727 3.336284637451172 8.588506698608398 C 3.338031768798828 8.58592414855957 3.339752197265625 8.583381652832031 3.341499328613281 8.58079719543457 C 3.341842651367188 8.580291748046875 3.342052459716797 8.579982757568359 3.342395782470703 8.579477310180664 C 3.344142913818359 8.576892852783203 3.346214294433594 8.573837280273438 3.347965240478516 8.571254730224609 C 3.348651885986328 8.570243835449219 3.348682403564453 8.570196151733398 3.349369049072266 8.569183349609375 C 3.351119995117188 8.56660270690918 3.352924346923828 8.563945770263672 3.35467529296875 8.561365127563477 C 3.355018615722656 8.560859680175781 3.355415344238281 8.560272216796875 3.355758666992188 8.55976676940918 C 3.357376098632812 8.557384490966797 3.359035491943359 8.554941177368164 3.36065673828125 8.552558898925781 C 3.361000061035156 8.552053451538086 3.36187744140625 8.550764083862305 3.362220764160156 8.550258636474609 C 3.363975524902344 8.547677993774414 3.365753173828125 8.545063018798828 3.367507934570312 8.542484283447266 C 3.368194580078125 8.541473388671875 3.368602752685547 8.540876388549805 3.369289398193359 8.539867401123047 C 3.370639801025391 8.537883758544922 3.371929168701172 8.535989761352539 3.373279571533203 8.534006118774414 C 3.373970031738281 8.532995223999023 3.374515533447266 8.532196044921875 3.375202178955078 8.531185150146484 C 3.376823425292969 8.528806686401367 3.378635406494141 8.526151657104492 3.380256652832031 8.523773193359375 C 3.380599975585938 8.52326774597168 3.381946563720703 8.521299362182617 3.382289886474609 8.520793914794922 C 3.383644104003906 8.51881217956543 3.384880065917969 8.517002105712891 3.386234283447266 8.515020370483398 C 3.386920928955078 8.514011383056641 3.387214660644531 8.513582229614258 3.387905120849609 8.5125732421875 C 3.389530181884766 8.510194778442383 3.391334533691406 8.507553100585938 3.392959594726562 8.505176544189453 C 3.393650054931641 8.504167556762695 3.394439697265625 8.503015518188477 3.395130157470703 8.502006530761719 C 3.396484375 8.500026702880859 3.397953033447266 8.497879028320312 3.399311065673828 8.495899200439453 C 3.400001525878906 8.494890213012695 3.401157379150391 8.493204116821289 3.401847839355469 8.492195129394531 C 3.403202056884766 8.490215301513672 3.404373168945312 8.488508224487305 3.405727386474609 8.486530303955078 C 3.406421661376953 8.48552131652832 3.407382965087891 8.48411750793457 3.408077239990234 8.483108520507812 C 3.409702301025391 8.480733871459961 3.411319732666016 8.478378295898438 3.412948608398438 8.476005554199219 C 3.413642883300781 8.474996566772461 3.414543151855469 8.473686218261719 3.415233612060547 8.472677230834961 C 3.41632080078125 8.471096038818359 3.417140960693359 8.469902038574219 3.418228149414062 8.468320846557617 C 3.419269561767578 8.46681022644043 3.420001983642578 8.465742111206055 3.421039581298828 8.464229583740234 C 3.422672271728516 8.461858749389648 3.423961639404297 8.459983825683594 3.425594329833984 8.457612991333008 C 3.426631927490234 8.45610237121582 3.427116394042969 8.455400466918945 3.428157806396484 8.453889846801758 C 3.429107666015625 8.452507019042969 3.430244445800781 8.450860977172852 3.431198120117188 8.449478149414062 C 3.432235717773438 8.447967529296875 3.434116363525391 8.445240020751953 3.435157775878906 8.443731307983398 C 3.436244964599609 8.44215202331543 3.437282562255859 8.440647125244141 3.438373565673828 8.439067840576172 C 3.439067840576172 8.43806266784668 3.440422058105469 8.436098098754883 3.441116333007812 8.435092926025391 C 3.442070007324219 8.433710098266602 3.443347930908203 8.431863784790039 3.444301605224609 8.43048095703125 C 3.445690155029297 8.428470611572266 3.446762084960938 8.426918029785156 3.448154449462891 8.424907684326172 C 3.449108123779297 8.423526763916016 3.450237274169922 8.421894073486328 3.451190948486328 8.420513153076172 C 3.451885223388672 8.41950798034668 3.453250885009766 8.417533874511719 3.453948974609375 8.416528701782227 C 3.455310821533203 8.414556503295898 3.456584930419922 8.412717819213867 3.457950592041016 8.410745620727539 C 3.458995819091797 8.409238815307617 3.4599609375 8.407848358154297 3.461002349853516 8.406341552734375 C 3.46209716796875 8.404764175415039 3.463191986083984 8.403181076049805 3.464286804199219 8.401603698730469 C 3.46533203125 8.400096893310547 3.465770721435547 8.39946174621582 3.466815948486328 8.397954940795898 C 3.46832275390625 8.395786285400391 3.469734191894531 8.393749237060547 3.471240997314453 8.391582489013672 C 3.472286224365234 8.39007568359375 3.473526000976562 8.38829231262207 3.474571228027344 8.386787414550781 C 3.475254058837891 8.385801315307617 3.475933074951172 8.38482666015625 3.476619720458984 8.383842468261719 C 3.478363037109375 8.381332397460938 3.479763031005859 8.379318237304688 3.48150634765625 8.376810073852539 C 3.482330322265625 8.375629425048828 3.48321533203125 8.374355316162109 3.484035491943359 8.373174667358398 C 3.485084533691406 8.371669769287109 3.486335754394531 8.369874954223633 3.487380981445312 8.368371963500977 C 3.488067626953125 8.367387771606445 3.488670349121094 8.366521835327148 3.489356994628906 8.365537643432617 C 3.491451263427734 8.362529754638672 3.492671966552734 8.360776901245117 3.494770050048828 8.357770919799805 C 3.495594024658203 8.356590270996094 3.496147155761719 8.355794906616211 3.496971130371094 8.3546142578125 C 3.498020172119141 8.353111267089844 3.499248504638672 8.351350784301758 3.500297546386719 8.349847793579102 C 3.500846862792969 8.349061965942383 3.501441955566406 8.348211288452148 3.501991271972656 8.347423553466797 C 3.50408935546875 8.344419479370117 3.505825042724609 8.341934204101562 3.507926940917969 8.338930130004883 C 3.508476257324219 8.338144302368164 3.509078979492188 8.337282180786133 3.509628295898438 8.336494445800781 C 3.513130187988281 8.331489562988281 3.5174560546875 8.325313568115234 3.520961761474609 8.320310592651367 C 3.521373748779297 8.319721221923828 3.521823883056641 8.319084167480469 3.522235870361328 8.31849479675293 C 3.524341583251953 8.315492630004883 3.527248382568359 8.311347961425781 3.529354095458984 8.308347702026367 C 3.529628753662109 8.307954788208008 3.529815673828125 8.30769157409668 3.53009033203125 8.30729866027832 C 3.531494140625 8.3052978515625 3.532459259033203 8.303924560546875 3.533863067626953 8.301925659179688 C 3.534278869628906 8.301336288452148 3.534488677978516 8.301036834716797 3.534904479980469 8.300447463989258 C 3.537010192871094 8.297449111938477 3.539867401123047 8.293388366699219 3.541976928710938 8.290390014648438 C 3.542251586914062 8.289999008178711 3.542579650878906 8.289529800415039 3.542858123779297 8.289138793945312 C 3.544261932373047 8.287139892578125 3.545345306396484 8.285606384277344 3.5467529296875 8.283607482910156 C 3.546890258789062 8.283411026000977 3.547031402587891 8.283208847045898 3.547168731689453 8.283014297485352 C 3.549983978271484 8.279018402099609 3.552005767822266 8.276151657104492 3.554821014404297 8.272157669067383 C 3.555099487304688 8.271766662597656 3.555351257324219 8.27140998840332 3.555625915527344 8.271017074584961 C 3.559852600097656 8.26502799987793 3.563453674316406 8.259931564331055 3.567684173583984 8.253946304321289 C 3.567825317382812 8.253749847412109 3.56817626953125 8.253253936767578 3.568313598632812 8.253059387207031 C 3.572544097900391 8.247074127197266 3.576374053955078 8.241668701171875 3.580612182617188 8.235689163208008 C 3.580612182617188 8.235689163208008 3.580818176269531 8.235395431518555 3.580818176269531 8.235395431518555 C 3.583644866943359 8.231409072875977 3.586322784423828 8.227636337280273 3.589149475097656 8.223651885986328 C 3.589149475097656 8.223651885986328 3.589157104492188 8.223642349243164 3.589157104492188 8.223642349243164 C 3.603302001953125 8.203720092773438 3.617382049560547 8.183967590332031 3.631599426269531 8.164100646972656 L 6.884441375732422 10.49197959899902 C 4.997421264648438 13.1287899017334 4 16.24370956420898 4 19.5 C 4 23.64019966125488 5.612281799316406 27.53258895874023 8.539850234985352 30.46014976501465 C 11.46740913391113 33.38771820068359 15.35980033874512 35 19.5 35 C 23.64019966125488 35 27.53258895874023 33.38771820068359 30.46014976501465 30.46014976501465 C 33.38771820068359 27.53258895874023 35 23.64019966125488 35 19.5 C 35 15.35980033874512 33.38771820068359 11.46740913391113 30.46014976501465 8.539850234985352 C 27.53258895874023 5.612281799316406 23.64019966125488 4 19.5 4 L 19.5 0 C 19.5 0 19.5 0 19.5 0 Z" stroke="none" fill="#ee2225"/>
    </g>
  </g>
</svg>
