<svg xmlns="http://www.w3.org/2000/svg" width="93" height="93" viewBox="0 0 93 93">
  <g id="Group_14926" data-name="Group 14926" transform="translate(-0.23 -0.276)">
    <circle id="Ellipse_1" data-name="Ellipse 1" cx="46.5" cy="46.5" r="46.5" transform="translate(0.23 0.276)" fill="#202022"/>
    <g id="building-city-svgrepo-com" transform="translate(22.91 22.697)">
      <g id="Group_23131" data-name="Group 23131" transform="translate(24.573 0)">
        <g id="Group_23130" data-name="Group 23130" transform="translate(0 0)">
          <path id="Path_8188" data-name="Path 8188" d="M286.974,33.315h-1.719A6.414,6.414,0,0,0,279.1,24.74a6.458,6.458,0,0,0-1.342.167A6.182,6.182,0,0,0,266.9,28.954a6.2,6.2,0,0,0,.552,2.551,4.1,4.1,0,0,0-.432,1.36,4.21,4.21,0,0,0-.035.449h-.9a.967.967,0,0,0,0,1.934h20.89a.967.967,0,0,0,0-1.934Zm-13.892-8.608a4.215,4.215,0,0,1,2.741,1,6.454,6.454,0,0,0-1.179.947,6.373,6.373,0,0,0-1.677,3.053,4.153,4.153,0,0,0-2.134-.423,4.107,4.107,0,0,0-1.892.615,4.247,4.247,0,0,1,4.141-5.195Zm10.056,8.608H268.92c0-.064.009-.129.017-.193a2.208,2.208,0,0,1,4.05-.89.967.967,0,0,0,1.777-.62,4.6,4.6,0,0,1-.023-.461,4.5,4.5,0,0,1,4.393-4.477h.083a4.493,4.493,0,0,1,4.477,4.342A4.441,4.441,0,0,1,283.138,33.315Z" transform="translate(-265.117 -22.772)" fill="#fff"/>
        </g>
      </g>
      <g id="Group_23133" data-name="Group 23133" transform="translate(0 6.804)">
        <g id="Group_23132" data-name="Group 23132">
          <path id="Path_8189" data-name="Path 8189" d="M6.8,96.178A3.876,3.876,0,0,0,3.885,97.5,3.876,3.876,0,0,0,.967,96.178a.967.967,0,1,0,0,1.934,1.953,1.953,0,0,1,1.951,1.951.967.967,0,0,0,1.934,0A1.953,1.953,0,0,1,6.8,98.112a.967.967,0,1,0,0-1.934Z" transform="translate(0 -96.178)" fill="#fff"/>
        </g>
      </g>
      <g id="Group_23135" data-name="Group 23135" transform="translate(8.593 0)">
        <g id="Group_23134" data-name="Group 23134" transform="translate(0 0)">
          <path id="Path_8190" data-name="Path 8190" d="M99.516,22.772A3.876,3.876,0,0,0,96.6,24.1a3.876,3.876,0,0,0-2.918-1.324.967.967,0,1,0,0,1.934,1.953,1.953,0,0,1,1.951,1.951.967.967,0,0,0,1.934,0,1.953,1.953,0,0,1,1.951-1.951.967.967,0,1,0,0-1.934Z" transform="translate(-92.713 -22.772)" fill="#fff"/>
        </g>
      </g>
      <g id="Group_23137" data-name="Group 23137" transform="translate(45.463 41.301)">
        <g id="Group_23136" data-name="Group 23136" transform="translate(0 0)">
          <path id="Path_8191" data-name="Path 8191" d="M491.474,468.356h-.013a.967.967,0,0,0,0,1.934h.013a.967.967,0,0,0,0-1.934Z" transform="translate(-490.494 -468.356)" fill="#fff"/>
        </g>
      </g>
      <g id="Group_23139" data-name="Group 23139" transform="translate(7.177 28.712)">
        <g id="Group_23138" data-name="Group 23138">
          <path id="Path_8192" data-name="Path 8192" d="M78.4,332.534a.967.967,0,0,0-.967.967v1.548a.967.967,0,1,0,1.934,0V333.5A.967.967,0,0,0,78.4,332.534Z" transform="translate(-77.433 -332.534)" fill="#fff"/>
        </g>
      </g>
      <g id="Group_23141" data-name="Group 23141" transform="translate(10.562 28.712)">
        <g id="Group_23140" data-name="Group 23140">
          <path id="Path_8193" data-name="Path 8193" d="M114.923,332.534a.967.967,0,0,0-.967.967v1.548a.967.967,0,1,0,1.934,0V333.5A.967.967,0,0,0,114.923,332.534Z" transform="translate(-113.956 -332.534)" fill="#fff"/>
        </g>
      </g>
      <g id="Group_23143" data-name="Group 23143" transform="translate(7.177 33.742)">
        <g id="Group_23142" data-name="Group 23142" transform="translate(0 0)">
          <path id="Path_8194" data-name="Path 8194" d="M78.4,386.8a.967.967,0,0,0-.967.967v1.548a.967.967,0,1,0,1.934,0v-1.548A.967.967,0,0,0,78.4,386.8Z" transform="translate(-77.433 -386.802)" fill="#fff"/>
        </g>
      </g>
      <g id="Group_23145" data-name="Group 23145" transform="translate(10.562 33.742)">
        <g id="Group_23144" data-name="Group 23144" transform="translate(0 0)">
          <path id="Path_8195" data-name="Path 8195" d="M114.923,386.8a.967.967,0,0,0-.967.967v1.548a.967.967,0,1,0,1.934,0v-1.548A.967.967,0,0,0,114.923,386.8Z" transform="translate(-113.956 -386.802)" fill="#fff"/>
        </g>
      </g>
      <g id="Group_23147" data-name="Group 23147" transform="translate(0 12.187)">
        <g id="Group_23146" data-name="Group 23146" transform="translate(0 0)">
          <path id="Path_8196" data-name="Path 8196" d="M47.457,169.125a10.1,10.1,0,0,0-15.583-8.479l-.054,0h-8.8v-5.416a.967.967,0,0,0-.967-.967H12.478a.967.967,0,0,0-.967.967V167.41H5.13a.967.967,0,0,0-.967.967v11.216a4.157,4.157,0,0,0-1.99,1.918A2.909,2.909,0,0,0,0,184.339a.967.967,0,0,0,.967.967H10.83a.967.967,0,0,0,.967-.967A2.716,2.716,0,0,0,9.714,181.7a4.165,4.165,0,0,0-3.617-2.48v-9.876h7.64v15a.967.967,0,1,0,1.934,0v-2.627H19.09a.967.967,0,1,0,0-1.934H15.671v-1.158H19.09a.967.967,0,1,0,0-1.934H15.671v-1.158H19.09a.967.967,0,0,0,0-1.934H15.671v-1.158H19.09a.967.967,0,1,0,0-1.934H15.671v-1.158H19.09a.967.967,0,1,0,0-1.934H13.446V166.25H19.09a.967.967,0,1,0,0-1.934H13.446v-1.158H19.09a.967.967,0,1,0,0-1.934H13.446v-1.161H19.09a.967.967,0,1,0,0-1.934H13.446v-1.935h7.64V184.34a.967.967,0,0,0,1.934,0v-11.9h1.551a.967.967,0,0,0,0-1.934H23.02v-1.161h1.551a.967.967,0,1,0,0-1.934H23.02V166.25h1.551a.967.967,0,0,0,0-1.934H23.02v-1.738h6.652a10.1,10.1,0,0,0-2.095,9.084,5.008,5.008,0,0,0-.376,9.887v1.824H25.941a.967.967,0,1,0,0,1.934H43.3a.967.967,0,1,0,0-1.934H38.269v-4.189A10.115,10.115,0,0,0,47.457,169.125ZM8.066,182.834a.966.966,0,0,0,.359.537H2.72a1.012,1.012,0,0,1,.169-.02.967.967,0,0,0,.887-.665,2.236,2.236,0,0,1,4.29.147Zm20.1-7.759a.967.967,0,0,0-.967.967v3.51a3.075,3.075,0,1,1,1.935,0v-3.51A.967.967,0,0,0,28.168,175.075Zm.967,8.3v-1.824a5.025,5.025,0,0,0,3.789-3.347,10.022,10.022,0,0,0,3.41.97v4.2h-7.2ZM37.3,166.4a.967.967,0,0,0-.967.967v4.011l-1.81-1.81a.967.967,0,0,0-1.368,1.368l3.178,3.178v3.114a8.1,8.1,0,0,1-3.183-1.1,5.022,5.022,0,0,0-3.494-4.274,8.167,8.167,0,1,1,8.612,5.387v-3.527h0v-1.357l2.943-2.943a.967.967,0,1,0-1.368-1.368l-1.575,1.575v-2.253A.967.967,0,0,0,37.3,166.4Z" transform="translate(0 -154.259)" fill="#fff"/>
        </g>
      </g>
    </g>
  </g>
</svg>
