<svg xmlns="http://www.w3.org/2000/svg" width="130.963" height="32.991" viewBox="0 0 130.963 32.991">
  <g id="Group_23334" data-name="Group 23334" transform="translate(-53.815 -17.391)">
    <path id="Union_3" data-name="Union 3" d="M61.393,32.991V17.146h2.26v1.966h.175a4.132,4.132,0,0,1,3.735-2.163c3.024,0,4.936,2.359,4.936,6.137s-1.912,6.148-4.915,6.148a3.877,3.877,0,0,1-3.657-2H63.74v5.755ZM63.7,23.1c0,2.478,1.234,4.029,3.2,4.029,2,0,3.188-1.518,3.188-4.041s-1.19-4.029-3.176-4.029S63.7,20.608,63.7,23.1ZM48.242,32.991V17.146H50.5v1.966h.175a4.132,4.132,0,0,1,3.735-2.163c3.024,0,4.936,2.359,4.936,6.137s-1.912,6.148-4.913,6.148a3.878,3.878,0,0,1-3.659-2H50.59v5.755Zm2.3-9.893c0,2.478,1.234,4.029,3.2,4.029,2,0,3.187-1.518,3.187-4.041s-1.189-4.029-3.176-4.029S50.545,20.608,50.545,23.1Zm28.185,1.548h2.512c.216,1.55,1.732,2.535,3.917,2.535,2.038,0,3.53-1.053,3.53-2.5,0-1.245-.949-1.992-3.112-2.5l-2.1-.509c-2.953-.69-4.3-2.116-4.3-4.516,0-2.909,2.377-4.844,5.942-4.844,3.316,0,5.738,1.935,5.885,4.686H88.532c-.239-1.506-1.551-2.445-3.452-2.445-2,0-3.338.963-3.338,2.433,0,1.165.86,1.833,2.987,2.332l1.8.441c3.351.781,4.73,2.139,4.73,4.595,0,3.124-2.422,5.082-6.291,5.082C81.345,29.434,78.912,27.566,78.731,24.646Zm41.445-1.516c0-3.8,2.128-6.213,5.481-6.213,3.309,0,5.306,2.26,5.306,5.995v.819h-8.4v.13c.078,2.086,1.29,3.408,3.168,3.408a2.852,2.852,0,0,0,2.829-1.442h2.259c-.535,2.13-2.434,3.44-5.153,3.44C122.26,29.267,120.175,26.93,120.175,23.13Zm2.39-1.135h6.006a2.87,2.87,0,0,0-2.926-3.08A3.041,3.041,0,0,0,122.565,21.995Zm-22.478,1.091c0-3.832,2.14-6.169,5.612-6.169s5.6,2.337,5.6,6.169c0,3.855-2.13,6.181-5.6,6.181S100.087,26.941,100.087,23.086Zm2.425,0c0,2.6,1.146,4.1,3.187,4.1s3.189-1.507,3.189-4.1S107.729,19,105.7,19,102.511,20.51,102.511,23.086Zm-8.384,2.807V19.177h-1.89V17.2h1.89V14.187h2.348V17.2h2.577v1.976H96.475v6.114c0,1.245.514,1.791,1.682,1.791a7.678,7.678,0,0,0,.9-.055v1.955a7.544,7.544,0,0,1-1.279.121C95.163,29.1,94.127,28.186,94.127,25.893ZM3,25.422c-2.436-3.56-4.334-10.034-1.79-14.438A7.049,7.049,0,0,1,7.092,7.4c1.866-.038,3.6,1.261,4.745,1.261,1.126,0,3.268-1.554,5.477-1.322a6.744,6.744,0,0,1,5.251,2.838,6.562,6.562,0,0,0-3.1,5.462,6.346,6.346,0,0,0,3.84,5.787,14.427,14.427,0,0,1-2,4.069c-1.177,1.76-2.41,3.479-4.369,3.51-1.9.045-2.541-1.119-4.724-1.119-2.2,0-2.884,1.088-4.708,1.164l-.1,0C5.593,29.046,4.2,27.135,3,25.422Zm110.125,3.615V17.146h2.26V18.97h.174a3.225,3.225,0,0,1,3.21-2.021,4.981,4.981,0,0,1,1.048.1v2.316a6.415,6.415,0,0,0-1.31-.142,2.786,2.786,0,0,0-3.036,2.8v7.021Zm-69.093,0L42.536,24.7H36.311l-1.5,4.335H32.2l5.9-16.331h2.726l5.9,16.331Zm-7.073-6.462h4.934l-2.366-6.9h-.192ZM119.352,5.313c0-1.9,1.064-3.107,2.74-3.107,1.655,0,2.653,1.131,2.653,3v.41h-4.2v.065a1.571,1.571,0,0,0,1.582,1.7,1.424,1.424,0,0,0,1.414-.721h1.131a2.414,2.414,0,0,1-2.577,1.72C120.395,8.381,119.352,7.213,119.352,5.313Zm1.2-.568h3a1.435,1.435,0,0,0-1.464-1.54A1.519,1.519,0,0,0,120.548,4.745Zm-29.467.547c0-1.916,1.071-3.085,2.806-3.085s2.8,1.169,2.8,3.085-1.065,3.09-2.8,3.09S91.081,7.218,91.081,5.291Zm1.214,0c0,1.3.572,2.047,1.592,2.047s1.595-.753,1.595-2.047S94.9,3.249,93.887,3.249,92.295,4,92.295,5.291Zm-24.9,0c0-1.916,1.071-3.085,2.806-3.085S73,3.375,73,5.291s-1.065,3.09-2.8,3.09S67.395,7.218,67.395,5.291Zm1.212,0c0,1.3.573,2.047,1.594,2.047S71.8,6.585,71.8,5.291,71.217,3.249,70.2,3.249,68.606,4,68.606,5.291Zm-26.918,0c0-1.916,1.071-3.085,2.808-3.085s2.8,1.169,2.8,3.085-1.065,3.09-2.8,3.09S41.688,7.218,41.688,5.291Zm1.213,0c0,1.3.574,2.047,1.595,2.047s1.594-.753,1.594-2.047S45.511,3.249,44.5,3.249,42.9,4,42.9,5.291Zm37.823,0c0-1.878.966-3.068,2.467-3.068a1.961,1.961,0,0,1,1.824,1.043H85.1V0h1.173V8.267H85.151V7.327h-.094a2.06,2.06,0,0,1-1.866,1.038C81.678,8.365,80.724,7.174,80.724,5.291Zm1.211,0c0,1.261.6,2.02,1.589,2.02s1.6-.77,1.6-2.015-.617-2.02-1.6-2.02S81.935,4.041,81.935,5.291ZM74.217,6.585c0-1.071.8-1.687,2.211-1.774l1.611-.093V4.2c0-.628-.415-.982-1.218-.982-.655,0-1.107.24-1.239.66H74.447c.121-1.021,1.08-1.676,2.43-1.676,1.49,0,2.332.743,2.332,2V8.267H78.078V7.431h-.094a2,2,0,0,1-1.784.934A1.8,1.8,0,0,1,74.217,6.585Zm2.37-.912c-.82.054-1.19.333-1.19.857s.464.846,1.1.846a1.4,1.4,0,0,0,1.54-1.3v-.5ZM108.7,6.694V3.336h-.945V2.348h.945V.841h1.173V2.348h1.288v.989h-1.288V6.394c0,.622.256.895.84.895a3.925,3.925,0,0,0,.447-.027v.977a3.749,3.749,0,0,1-.638.06C109.217,8.3,108.7,7.841,108.7,6.694Zm7.98,1.573V4.718c0-.95-.442-1.431-1.273-1.431a1.388,1.388,0,0,0-1.5,1.506V8.267h-1.174V0H113.9V3.276h.094a1.829,1.829,0,0,1,1.813-1.064,1.958,1.958,0,0,1,2.047,2.216V8.267Zm-14.56,0V4.712c0-.956-.416-1.431-1.284-1.431a1.363,1.363,0,0,0-1.419,1.506V8.267H98.243V2.321h1.13v.945h.087a1.782,1.782,0,0,1,1.774-1.06,1.935,1.935,0,0,1,2.059,2.212V8.267Zm-37.506,0V0h1.173V8.267Zm-3.023,0V4.712c0-.956-.414-1.431-1.282-1.431a1.364,1.364,0,0,0-1.42,1.506V8.267H57.714V2.321h1.131v.945h.087a1.78,1.78,0,0,1,1.774-1.06,1.935,1.935,0,0,1,2.059,2.212V8.267Zm-8.078,0L52.285,3.887h-.094L50.968,8.267H49.761L48.124,2.321h1.19l1.064,4.537h.088l1.222-4.537h1.125l1.223,4.537h.092l1.06-4.537h1.173L54.73,8.267Zm-19.732,0V.388h2.844c2.338,0,3.708,1.435,3.708,3.914,0,2.517-1.36,3.964-3.708,3.964ZM35,7.153h1.485c1.649,0,2.6-1.027,2.6-2.834,0-1.78-.965-2.817-2.6-2.817H35ZM11.615,7.006a6.153,6.153,0,0,1,1.5-4.422A6.519,6.519,0,0,1,17.338.4a6.4,6.4,0,0,1-1.466,4.591,5.455,5.455,0,0,1-4.2,2.014Z" transform="translate(53.815 17.391)" fill="#151515"/>
  </g>
</svg>
