<svg xmlns="http://www.w3.org/2000/svg" width="51" height="51" viewBox="0 0 51 51">
  <g id="Group_14926" data-name="Group 14926" transform="translate(-160 -552)">
    <circle id="Ellipse_1" data-name="Ellipse 1" cx="25.5" cy="25.5" r="25.5" transform="translate(160 552)" fill="#151515"/>
    <g id="building-city-svgrepo-com" transform="translate(172.526 541.638)">
      <g id="Group_23131" data-name="Group 23131" transform="translate(13.436 22.772)">
        <g id="Group_23130" data-name="Group 23130" transform="translate(0 0)">
          <path id="Path_8188" data-name="Path 8188" d="M277.068,28.536h-.94a3.507,3.507,0,0,0-3.367-4.688,3.531,3.531,0,0,0-.734.092,3.38,3.38,0,0,0-5.935,2.213,3.391,3.391,0,0,0,.3,1.395,2.244,2.244,0,0,0-.236.744,2.3,2.3,0,0,0-.019.246h-.492a.529.529,0,1,0,0,1.058h11.422a.529.529,0,1,0,0-1.058Zm-7.6-4.707a2.3,2.3,0,0,1,1.5.549,3.529,3.529,0,0,0-.644.518,3.485,3.485,0,0,0-.917,1.669,2.271,2.271,0,0,0-1.167-.231,2.246,2.246,0,0,0-1.035.336,2.322,2.322,0,0,1,2.264-2.84Zm5.5,4.707H267.2c0-.035,0-.07.01-.106a1.207,1.207,0,0,1,2.214-.487.529.529,0,0,0,.971-.339,2.518,2.518,0,0,1-.013-.252,2.46,2.46,0,0,1,2.4-2.448h.046a2.456,2.456,0,0,1,2.448,2.374A2.428,2.428,0,0,1,274.97,28.536Z" transform="translate(-265.117 -22.772)" fill="#fff"/>
        </g>
      </g>
      <g id="Group_23133" data-name="Group 23133" transform="translate(0 26.492)">
        <g id="Group_23132" data-name="Group 23132">
          <path id="Path_8189" data-name="Path 8189" d="M3.719,96.178a2.119,2.119,0,0,0-1.6.724,2.119,2.119,0,0,0-1.6-.724.529.529,0,0,0,0,1.058A1.068,1.068,0,0,1,1.6,98.3a.529.529,0,0,0,1.058,0,1.068,1.068,0,0,1,1.066-1.066.529.529,0,1,0,0-1.058Z" transform="translate(0 -96.178)" fill="#fff"/>
        </g>
      </g>
      <g id="Group_23135" data-name="Group 23135" transform="translate(4.699 22.772)">
        <g id="Group_23134" data-name="Group 23134" transform="translate(0 0)">
          <path id="Path_8190" data-name="Path 8190" d="M96.432,22.772a2.119,2.119,0,0,0-1.6.724,2.119,2.119,0,0,0-1.6-.724.529.529,0,1,0,0,1.058A1.068,1.068,0,0,1,94.308,24.9a.529.529,0,0,0,1.058,0,1.068,1.068,0,0,1,1.066-1.066.529.529,0,1,0,0-1.058Z" transform="translate(-92.713 -22.772)" fill="#fff"/>
        </g>
      </g>
      <g id="Group_23137" data-name="Group 23137" transform="translate(24.858 45.354)">
        <g id="Group_23136" data-name="Group 23136" transform="translate(0 0)">
          <path id="Path_8191" data-name="Path 8191" d="M491.03,468.356h-.007a.529.529,0,0,0,0,1.058h.007a.529.529,0,0,0,0-1.058Z" transform="translate(-490.494 -468.356)" fill="#fff"/>
        </g>
      </g>
      <g id="Group_23139" data-name="Group 23139" transform="translate(3.924 38.47)">
        <g id="Group_23138" data-name="Group 23138">
          <path id="Path_8192" data-name="Path 8192" d="M77.962,332.534a.529.529,0,0,0-.529.529v.846a.529.529,0,1,0,1.058,0v-.846A.529.529,0,0,0,77.962,332.534Z" transform="translate(-77.433 -332.534)" fill="#fff"/>
        </g>
      </g>
      <g id="Group_23141" data-name="Group 23141" transform="translate(5.775 38.47)">
        <g id="Group_23140" data-name="Group 23140">
          <path id="Path_8193" data-name="Path 8193" d="M114.485,332.534a.529.529,0,0,0-.529.529v.846a.529.529,0,1,0,1.058,0v-.846A.529.529,0,0,0,114.485,332.534Z" transform="translate(-113.956 -332.534)" fill="#fff"/>
        </g>
      </g>
      <g id="Group_23143" data-name="Group 23143" transform="translate(3.924 41.221)">
        <g id="Group_23142" data-name="Group 23142" transform="translate(0 0)">
          <path id="Path_8194" data-name="Path 8194" d="M77.962,386.8a.529.529,0,0,0-.529.529v.846a.529.529,0,1,0,1.058,0v-.846A.529.529,0,0,0,77.962,386.8Z" transform="translate(-77.433 -386.802)" fill="#fff"/>
        </g>
      </g>
      <g id="Group_23145" data-name="Group 23145" transform="translate(5.775 41.221)">
        <g id="Group_23144" data-name="Group 23144" transform="translate(0 0)">
          <path id="Path_8195" data-name="Path 8195" d="M114.485,386.8a.529.529,0,0,0-.529.529v.846a.529.529,0,1,0,1.058,0v-.846A.529.529,0,0,0,114.485,386.8Z" transform="translate(-113.956 -386.802)" fill="#fff"/>
        </g>
      </g>
      <g id="Group_23147" data-name="Group 23147" transform="translate(0 29.436)">
        <g id="Group_23146" data-name="Group 23146" transform="translate(0 0)">
          <path id="Path_8196" data-name="Path 8196" d="M25.948,162.387a5.52,5.52,0,0,0-8.52-4.636H12.586v-2.962a.529.529,0,0,0-.529-.529H6.823a.529.529,0,0,0-.529.529v6.662H2.8a.529.529,0,0,0-.529.529v6.133a2.273,2.273,0,0,0-1.088,1.049A1.59,1.59,0,0,0,0,170.705a.529.529,0,0,0,.529.529H5.922a.529.529,0,0,0,.529-.529,1.485,1.485,0,0,0-1.139-1.442,2.277,2.277,0,0,0-1.978-1.356v-5.4H7.511v8.2a.529.529,0,1,0,1.058,0V169.27h1.869a.529.529,0,1,0,0-1.058H8.568v-.633h1.869a.529.529,0,1,0,0-1.058H8.568v-.633h1.869a.529.529,0,0,0,0-1.058H8.568V164.2h1.869a.529.529,0,1,0,0-1.058H8.568v-.633h1.869a.529.529,0,1,0,0-1.058H7.352v-.635h3.086a.529.529,0,0,0,0-1.058H7.352v-.633h3.086a.529.529,0,1,0,0-1.058H7.352v-.635h3.086a.529.529,0,1,0,0-1.058H7.352v-1.058h4.177v15.389a.529.529,0,0,0,1.058,0V164.2h.848a.529.529,0,0,0,0-1.058h-.848v-.635h.848a.529.529,0,1,0,0-1.058h-.848v-.635h.848a.529.529,0,0,0,0-1.058h-.848v-.95h3.637a5.524,5.524,0,0,0-1.145,4.967,2.738,2.738,0,0,0-.205,5.406v1h-.689a.529.529,0,1,0,0,1.058h9.492a.529.529,0,1,0,0-1.058H20.924v-2.29A5.53,5.53,0,0,0,25.948,162.387Zm-21.538,7.5a.528.528,0,0,0,.2.294H1.487a.554.554,0,0,1,.093-.011.529.529,0,0,0,.485-.363,1.222,1.222,0,0,1,2.346.08ZM15.4,165.64a.529.529,0,0,0-.529.529v1.919a1.681,1.681,0,1,1,1.058,0v-1.919A.529.529,0,0,0,15.4,165.64Zm.529,4.537v-1A2.748,2.748,0,0,0,18,167.35a5.48,5.48,0,0,0,1.864.53v2.3H15.93ZM20.4,160.9a.529.529,0,0,0-.529.529v2.193l-.989-.989a.529.529,0,0,0-.748.748l1.737,1.737v1.7a4.428,4.428,0,0,1-1.74-.6,2.746,2.746,0,0,0-1.91-2.337,4.466,4.466,0,1,1,4.709,2.945V164.9h0v-.742l1.609-1.609a.529.529,0,0,0-.748-.748l-.861.861v-1.232A.529.529,0,0,0,20.4,160.9Z" transform="translate(0 -154.259)" fill="#fff"/>
        </g>
      </g>
    </g>
  </g>
</svg>
