<svg xmlns="http://www.w3.org/2000/svg" width="223.28" height="50.148" viewBox="0 0 223.28 50.148">
  <g id="Group_14699" data-name="Group 14699" transform="translate(-370.604 -1239.948)">
    <g id="Group_14693" data-name="Group 14693" transform="translate(370.604 1239.948)">
      <g id="Group_14692" data-name="Group 14692" transform="translate(21.012 39.506)">
        <path id="Path_51077" data-name="Path 51077" d="M796.642,1433.037a8.381,8.381,0,0,1-9.9,2.088,5.824,5.824,0,0,1,.353-1.546,5.339,5.339,0,0,1,1.465-2.007,4.741,4.741,0,0,1,2.143-1.085A5.23,5.23,0,0,1,796.642,1433.037Z" transform="translate(-786.741 -1430.318)" fill="#fff"/>
        <path id="Path_51078" data-name="Path 51078" d="M787.942,1475.243a9.4,9.4,0,0,0,4.963,1.763,9.219,9.219,0,0,0,5.1-1.193c.027.027,0,.027,0,.081-.109.244-.217.515-.353.759s-.3.461-.461.705a5.45,5.45,0,0,1-1.464,1.275,5.326,5.326,0,0,1-7.783-3.227.174.174,0,0,1,0-.163Z" transform="translate(-787.75 -1468.7)" fill="#fff"/>
        <path id="Path_51079" data-name="Path 51079" d="M804.039,1458.7h.976c.325-.027.651-.081.949-.109.326-.081.651-.135.949-.217a5.334,5.334,0,0,0,.922-.325,5.064,5.064,0,0,0,.868-.407,6.988,6.988,0,0,0,.84-.515,5.218,5.218,0,0,0,.759-.6c.244-.217.461-.434.732-.651a4.074,4.074,0,0,1,.19.732l-.109.109a8.762,8.762,0,0,1-3.661,1.98,8.918,8.918,0,0,1-4.312,0Z" transform="translate(-800.755 -1452.155)" fill="#fff"/>
        <path id="Path_51080" data-name="Path 51080" d="M813.572,1466.322a9.212,9.212,0,0,0,6.4-2.088c.081-.027.108-.108.19-.136.027,0,.027-.027.081-.027a4.3,4.3,0,0,1,0,.841,2.9,2.9,0,0,0-.3.217,8.2,8.2,0,0,1-6.237,1.248Z" transform="translate(-809.664 -1459.155)" fill="#fff"/>
      </g>
      <path id="Path_51081" data-name="Path 51081" d="M793.1,1255.7h0c1.79.244,1.763.217,1.654,2.007a35.071,35.071,0,0,1-1.9,8.461c-.353,1.166-.814,2.3-1.275,3.444a9.416,9.416,0,0,0-1.193,3.254,1.149,1.149,0,0,0,.244.841,1.556,1.556,0,0,0,.6.325,7.231,7.231,0,0,1,3.146,3.281c.352.651-1.681.732-1.98.759-1.058.109-2.115.19-3.2.217-1.383.027-2.766-.027-4.149-.136a11.344,11.344,0,0,1-2.115-.3c-.6-.19-.542-.461-.244-.949a7.521,7.521,0,0,1,3.607-3.254.871.871,0,0,0,.624-.841,5.339,5.339,0,0,0-.759-2.495,33.673,33.673,0,0,1-1.275-3.254,56.436,56.436,0,0,1-1.871-6.753,17.861,17.861,0,0,1-.434-3.39c0-.814.109-.922.922-1.085.217-.027.461-.108.705-.135v.434c.027.814.027.814.868.814h6.889C793.13,1256.946,793.13,1256.946,793.1,1255.7Zm-8.434,2.549c.081.108,0,.542,0,.7,0,.3,0,.6.027.922,0,.6.027,1.166.082,1.763a30.305,30.305,0,0,0,.434,3.471,20.733,20.733,0,0,0,2.224,6.536c.108.19.19.353.3.515a8.037,8.037,0,0,0-.136-2.414l-.325-2.522c-.19-1.709-.3-3.5-.542-5.207-.027-.326-.326-.759.217-1.031.027-.027.135-.6-.217-.759A4.539,4.539,0,0,1,784.669,1258.248Zm7.919,0a5.713,5.713,0,0,1-1.98,1.9.564.564,0,0,0-.136.868c.217.19.136.325.136.461-.108,1.3-.217,2.631-.352,3.932-.3,2.034-.326,4.1-.732,6.1-.108.515.136.542.353.081a28.555,28.555,0,0,0,2.115-6.509,28.939,28.939,0,0,0,.434-3.39c.027-.6.081-1.166.108-1.763,0-.3.027-.6.027-.922C792.588,1258.926,792.533,1258.411,792.588,1258.248Z" transform="translate(-762.082 -1241.624)" fill="#fff"/>
      <path id="Path_51082" data-name="Path 51082" d="M793.834,1232.031a4.4,4.4,0,0,1,2.848-3.716,4.518,4.518,0,0,1,6.129,3.716h0C799.854,1231.868,796.817,1231.922,793.834,1232.031Z" transform="translate(-771.789 -1217.956)" fill="#fff"/>
      <path id="Path_51083" data-name="Path 51083" d="M804.946,1164.425a2.968,2.968,0,0,0,.027-.434,1.964,1.964,0,0,0-.868-2.549.312.312,0,0,1-.217-.325,11.655,11.655,0,0,0,1.356-.217.761.761,0,0,0,.705-.461c.217-.461.461-.922.705-1.383.325.6.461,1.356.976,1.681.434.325,1.193.244,1.871.353a11.058,11.058,0,0,1-.976.976.836.836,0,0,0-.325.976,12.994,12.994,0,0,1,.217,1.356,5.109,5.109,0,0,1-1.3-.6.87.87,0,0,0-.922,0C805.869,1163.964,805.408,1164.18,804.946,1164.425Z" transform="translate(-780.38 -1159.055)" fill="#fff"/>
      <path id="Path_51084" data-name="Path 51084" d="M716.43,1396.662a4.361,4.361,0,0,1,.6,5.939c-.217.325-.325.325-.542.027A4.416,4.416,0,0,1,716.43,1396.662Z" transform="translate(-704.691 -1362.058)" fill="#fff"/>
      <path id="Path_51085" data-name="Path 51085" d="M740.063,1421.44a6.122,6.122,0,0,1-.434,2.088c-.108.244-.217.244-.434.108a4.481,4.481,0,0,1-1.464-5.614c.108-.244.217-.244.434-.108A4.307,4.307,0,0,1,740.063,1421.44Z" transform="translate(-723.469 -1380.137)" fill="#fff"/>
      <path id="Path_51086" data-name="Path 51086" d="M892.352,1423.116a4.5,4.5,0,0,1,1.356-5.939c.325-.217.325,0,.434.217A4.44,4.44,0,0,1,892.352,1423.116Z" transform="translate(-855.446 -1379.508)" fill="#fff"/>
      <path id="Path_51087" data-name="Path 51087" d="M916.473,1396.662a4.544,4.544,0,0,1-.027,6.021c-.244.244-.325.244-.542-.027A4.438,4.438,0,0,1,916.473,1396.662Z" transform="translate(-875.309 -1362.058)" fill="#fff"/>
      <path id="Path_51088" data-name="Path 51088" d="M683.533,1356.207a4.489,4.489,0,0,1,1.79-5.8c.136-.109.244-.217.353.109A4.425,4.425,0,0,1,683.533,1356.207Z" transform="translate(-677.19 -1322.444)" fill="#fff"/>
      <path id="Path_51089" data-name="Path 51089" d="M947.692,1356.513a4.6,4.6,0,0,1-2.305-5.587c.109-.353.244-.326.542-.136A4.468,4.468,0,0,1,947.692,1356.513Z" transform="translate(-901.077 -1322.749)" fill="#fff"/>
      <path id="Path_51090" data-name="Path 51090" d="M713.986,1193.811a4.486,4.486,0,0,1-4.854,3.715c-.434-.027-.244-.244-.217-.434A4.537,4.537,0,0,1,713.986,1193.811Z" transform="translate(-699.182 -1188.713)" fill="#fff"/>
      <path id="Path_51091" data-name="Path 51091" d="M909.038,1197.334a4.519,4.519,0,0,1-5.153-3.661A4.473,4.473,0,0,1,909.038,1197.334Z" transform="translate(-865.813 -1188.575)" fill="#fff"/>
      <path id="Path_51092" data-name="Path 51092" d="M679.213,1253.514a7.227,7.227,0,0,1-1.546-.244c-.434-.109-.353-.244-.136-.6a4.481,4.481,0,0,1,5.37-1.79c.217.027.542.108.244.461A4.812,4.812,0,0,1,679.213,1253.514Z" transform="translate(-672.274 -1237.269)" fill="#fff"/>
      <path id="Path_51093" data-name="Path 51093" d="M934.987,1253.48a4.477,4.477,0,0,1-3.878-2.2c-.135-.217-.135-.325.136-.434a4.578,4.578,0,0,1,5.505,1.9c.136.217.136.325-.136.434A5.18,5.18,0,0,1,934.987,1253.48Z" transform="translate(-888.996 -1237.235)" fill="#fff"/>
      <path id="Path_51094" data-name="Path 51094" d="M953.687,1303.669c.027.244-.027.325-.325.244a4.566,4.566,0,0,1-4.041-4.149c0-.217,0-.353.326-.326A4.463,4.463,0,0,1,953.687,1303.669Z" transform="translate(-904.632 -1278.991)" fill="#fff"/>
      <path id="Path_51095" data-name="Path 51095" d="M948.931,1278.194a4.379,4.379,0,0,1-4.312-3.092c-.135-.434-.108-.6.353-.6a4.548,4.548,0,0,1,4.5,2.956C949.718,1278.194,949.691,1278.276,948.931,1278.194Z" transform="translate(-900.554 -1257.692)" fill="#fff"/>
      <path id="Path_51096" data-name="Path 51096" d="M669.831,1278.194c-.705,0-.759,0-.461-.7a4.468,4.468,0,0,1,4.5-2.983c.461,0,.542.136.353.6A4.36,4.36,0,0,1,669.831,1278.194Z" transform="translate(-665.305 -1257.692)" fill="#fff"/>
      <path id="Path_51097" data-name="Path 51097" d="M710.468,1454.68a4.606,4.606,0,0,1-3.064-1.41c-.217-.217-.136-.325.027-.434a4.611,4.611,0,0,1,5.8.651c.217.217.244.325-.027.461A5.776,5.776,0,0,1,710.468,1454.68Z" transform="translate(-697.834 -1409.418)" fill="#fff"/>
      <path id="Path_51098" data-name="Path 51098" d="M673.6,1299.817a4.513,4.513,0,0,1-3.986,4.149c-.244.027-.353,0-.353-.325a4.592,4.592,0,0,1,4.041-4.149C673.6,1299.41,673.7,1299.518,673.6,1299.817Z" transform="translate(-665.355 -1279.016)" fill="#fff"/>
      <path id="Path_51099" data-name="Path 51099" d="M898.671,1453.192a4.576,4.576,0,0,1,6.02-.922c.217.136.244.217.027.434A4.455,4.455,0,0,1,898.671,1453.192Z" transform="translate(-861.358 -1408.934)" fill="#fff"/>
      <path id="Path_51100" data-name="Path 51100" d="M967.607,1368.941c-.434.109-.461-.109-.352-.461a4.56,4.56,0,0,1,4.312-3.661c.352,0,.352.109.325.434A4.4,4.4,0,0,1,967.607,1368.941Z" transform="translate(-919.908 -1334.852)" fill="#fff"/>
      <path id="Path_51101" data-name="Path 51101" d="M945.554,1201.2a4.553,4.553,0,0,1-1.79-5.722c.135-.434.325-.325.6-.109A4.522,4.522,0,0,1,945.554,1201.2Z" transform="translate(-899.563 -1189.919)" fill="#fff"/>
      <path id="Path_51102" data-name="Path 51102" d="M686.013,1199.076a4.615,4.615,0,0,1,1.9-3.824c.217-.136.244-.108.353.109a4.573,4.573,0,0,1-1.464,5.695c-.217.136-.325.109-.353-.108A6.59,6.59,0,0,1,686.013,1199.076Z" transform="translate(-679.67 -1189.91)" fill="#fff"/>
      <path id="Path_51103" data-name="Path 51103" d="M954.9,1330.244c.027.814.027.814-.76.461a4.371,4.371,0,0,1-2.983-4.5c0-.353.027-.461.461-.353A4.564,4.564,0,0,1,954.9,1330.244Z" transform="translate(-906.197 -1301.525)" fill="#fff"/>
      <path id="Path_51104" data-name="Path 51104" d="M671.561,1330.7a4.368,4.368,0,0,1,3.281-4.312c.353-.109.434-.027.461.325a4.513,4.513,0,0,1-2.983,4.529C671.507,1331.536,671.507,1331.536,671.561,1330.7Z" transform="translate(-667.307 -1301.976)" fill="#fff"/>
      <path id="Path_51105" data-name="Path 51105" d="M652.921,1369.081a4.63,4.63,0,0,1-4.393-3.661c-.027-.326-.027-.461.353-.434a4.459,4.459,0,0,1,4.312,3.607C653.328,1368.81,653.464,1369.189,652.921,1369.081Z" transform="translate(-647.637 -1334.992)" fill="#fff"/>
      <path id="Path_51106" data-name="Path 51106" d="M665.17,1228.845a4.477,4.477,0,0,1,.244-6.292A4.428,4.428,0,0,1,665.17,1228.845Z" transform="translate(-660.861 -1213.305)" fill="#fff"/>
      <path id="Path_51107" data-name="Path 51107" d="M967.765,1222.739a4.485,4.485,0,0,1,.244,6.292A4.485,4.485,0,0,1,967.765,1222.739Z" transform="translate(-919.388 -1213.464)" fill="#fff"/>
      <path id="Path_51108" data-name="Path 51108" d="M646.069,1330.73c0,.868,0,.868-.814.461a4.267,4.267,0,0,1-2.766-4.637c0-.325.109-.353.434-.244A4.38,4.38,0,0,1,646.069,1330.73Z" transform="translate(-642.466 -1301.903)" fill="#fff"/>
      <path id="Path_51109" data-name="Path 51109" d="M984.67,1326.577a4.307,4.307,0,0,1-3.092,4.312c-.353.136-.461.027-.461-.325a4.644,4.644,0,0,1,2.983-4.719c.461-.217.651-.108.6.434A1.46,1.46,0,0,0,984.67,1326.577Z" transform="translate(-931.791 -1301.465)" fill="#fff"/>
      <path id="Path_51110" data-name="Path 51110" d="M685.226,1429.87a4.439,4.439,0,0,1-3.878-2.115c-.217-.244-.027-.325.136-.434a4.641,4.641,0,0,1,5.505,1.79c.135.244.135.352-.136.461A4.454,4.454,0,0,1,685.226,1429.87Z" transform="translate(-675.602 -1387.997)" fill="#fff"/>
      <path id="Path_51111" data-name="Path 51111" d="M926.417,1429.126a4.447,4.447,0,0,1,5.614-2.115c.217.027.353.108.217.353A4.421,4.421,0,0,1,926.417,1429.126Z" transform="translate(-885.063 -1387.715)" fill="#fff"/>
      <path id="Path_51112" data-name="Path 51112" d="M700.35,1377.59a4.791,4.791,0,0,1-1.654,3.39c-.217.217-.244.108-.352-.109a4.724,4.724,0,0,1,.976-5.8c.217-.217.326-.135.434.109A4.439,4.439,0,0,1,700.35,1377.59Z" transform="translate(-689.695 -1343.501)" fill="#fff"/>
      <path id="Path_51113" data-name="Path 51113" d="M935.186,1378.73a5.756,5.756,0,0,1-.6,2.088c-.135.325-.244.244-.461.027a4.55,4.55,0,0,1-1.031-5.7c.108-.217.217-.353.461-.109A4.722,4.722,0,0,1,935.186,1378.73Z" transform="translate(-890.28 -1343.476)" fill="#fff"/>
      <path id="Path_51114" data-name="Path 51114" d="M917.608,1229.811a4.6,4.6,0,0,1-6.021-.434c-.244-.217-.325-.325.027-.542A4.49,4.49,0,0,1,917.608,1229.811Z" transform="translate(-872.214 -1218.041)" fill="#fff"/>
      <path id="Path_51115" data-name="Path 51115" d="M700.819,1228.9a4.483,4.483,0,0,1-6.237.76A4.572,4.572,0,0,1,700.819,1228.9Z" transform="translate(-686.992 -1217.971)" fill="#fff"/>
      <path id="Path_51116" data-name="Path 51116" d="M667.365,1400.476a4.432,4.432,0,0,1-5.37-3.2A4.432,4.432,0,0,1,667.365,1400.476Z" transform="translate(-659.151 -1362.455)" fill="#fff"/>
      <path id="Path_51117" data-name="Path 51117" d="M955.275,1397.407a4.487,4.487,0,0,1-5.071,3.444c-.434-.109-.217-.244-.135-.461a4.366,4.366,0,0,1,4.312-2.956C954.651,1397.407,954.949,1397.407,955.275,1397.407Z" transform="translate(-905.162 -1362.694)" fill="#fff"/>
      <path id="Path_51118" data-name="Path 51118" d="M648,1295.482c-.027.353-.108.759-.136,1.139-.027.353-.217.353-.461.217a4.508,4.508,0,0,1-2.332-5.261c.109-.326.217-.326.461-.136A4.578,4.578,0,0,1,648,1295.482Z" transform="translate(-644.554 -1272.051)" fill="#fff"/>
      <path id="Path_51119" data-name="Path 51119" d="M982.281,1295.441a4.528,4.528,0,0,1,2.549-4.149c.244-.136.325-.027.434.217a4.541,4.541,0,0,1-2.414,5.288c-.325.135-.434.109-.434-.217C982.389,1296.173,982.281,1295.766,982.281,1295.441Z" transform="translate(-932.791 -1271.982)" fill="#fff"/>
      <path id="Path_51120" data-name="Path 51120" d="M652.146,1261a6.592,6.592,0,0,1-.461,2.115c-.108.325-.217.325-.461.108a4.46,4.46,0,0,1-1.356-5.614c.108-.217.136-.353.434-.135A4.532,4.532,0,0,1,652.146,1261Z" transform="translate(-648.38 -1243.048)" fill="#fff"/>
      <path id="Path_51121" data-name="Path 51121" d="M982.136,1256.816a4.507,4.507,0,0,1-1.139,5.939c-.217.136-.325.136-.434-.109A4.458,4.458,0,0,1,982.136,1256.816Z" transform="translate(-930.884 -1242.578)" fill="#fff"/>
      <path id="Path_51122" data-name="Path 51122" d="M854.926,1183.4a1.612,1.612,0,0,0-.651,2.088,1.547,1.547,0,0,0-2.2.027c.217-.868.217-1.573-.705-2.088a1.6,1.6,0,0,0,1.79-1.464C853.434,1182.881,853.868,1183.423,854.926,1183.4Z" transform="translate(-820.948 -1178.623)" fill="#fff"/>
      <path id="Path_51123" data-name="Path 51123" d="M775.731,1183.423a2.7,2.7,0,0,0-.705.868,3.041,3.041,0,0,0,.109,1.248,1.5,1.5,0,0,0-2.2-.027,1.671,1.671,0,0,0-.705-2.088,1.539,1.539,0,0,0,1.763-1.464C774.321,1182.881,774.755,1183.5,775.731,1183.423Z" transform="translate(-753.334 -1178.623)" fill="#fff"/>
    </g>
    <g id="Group_14698" data-name="Group 14698" transform="translate(434.48 1248.716)">
      <path id="Path_51124" data-name="Path 51124" d="M1080.744,1568.568V1541.8h-2.378l2.132-5.289h6.109v32.1" transform="translate(-942.66 -1536.301)" fill="#fff"/>
      <path id="Path_51125" data-name="Path 51125" d="M1150.946,1568.568V1541.8h-2.378l2.132-5.289h6.109v32.1" transform="translate(-997.406 -1536.301)" fill="#fff"/>
      <path id="Path_51126" data-name="Path 51126" d="M462,1542.042v-5.535h16.564v5.535Zm10.291,26.649v-31.528h6.273v31.528Z" transform="translate(-462.003 -1536.301)" fill="#fff"/>
      <path id="Path_51127" data-name="Path 51127" d="M603.524,1568.546v-32.225h6.232v32.184h-6.232Zm3.9-13.9v-5.535h18v5.535Zm16.276,13.9v-32.225h6.232v32.184H623.7Z" transform="translate(-572.365 -1536.156)" fill="#fff"/>
      <path id="Path_51128" data-name="Path 51128" d="M753.239,1559.157v-22.836h6.232v22.836Z" transform="translate(-689.117 -1536.156)" fill="#fff"/>
      <path id="Path_51129" data-name="Path 51129" d="M811.71,1568.546v-32.225h4.346l1.886,6.232v25.952H811.71v.041Zm22.262,0-19.106-24.722,1.23-7.462,19.105,24.722Zm0,0-1.763-6.068v-26.157h6.273v32.184h-4.51Z" transform="translate(-734.714 -1536.156)" fill="#fff"/>
      <path id="Path_51130" data-name="Path 51130" d="M970.75,1568.546l-13.981-16.85,13.612-15.375h7.749l-15.088,16.687v-2.87l15.662,18.408Z" transform="translate(-847.836 -1536.156)" fill="#fff"/>
      <g id="Group_14695" data-name="Group 14695" transform="translate(19.776 0)">
        <g id="Group_14694" data-name="Group 14694">
          <path id="Path_51131" data-name="Path 51131" d="M556.73,1535.9a5.526,5.526,0,0,1-4.428,5,2.514,2.514,0,0,1-.369-.943,3.175,3.175,0,0,1,0-1.64,3.893,3.893,0,0,1,.7-1.435A3.319,3.319,0,0,1,556.73,1535.9Z" transform="translate(-551.825 -1535.574)" fill="#fff"/>
          <path id="Path_51132" data-name="Path 51132" d="M557.344,1550.294a5.925,5.925,0,0,0,3.321-1.066,6.217,6.217,0,0,0,2.255-2.665l.041.041a2.5,2.5,0,0,1,.123.533,2.313,2.313,0,0,1,0,.533,3.564,3.564,0,0,1-.287,1.271,3.482,3.482,0,0,1-2.419,2.05,3.073,3.073,0,0,1-1.066.041,3.58,3.58,0,0,1-1.927-.779c0,.123,0,.123-.041.041Z" transform="translate(-556.129 -1544.144)" fill="#fff"/>
          <path id="Path_51133" data-name="Path 51133" d="M563.195,1543.006a3.822,3.822,0,0,1,.492-.369,4.717,4.717,0,0,0,.451-.451c.164-.164.287-.328.451-.492a2.46,2.46,0,0,0,.369-.533c.123-.164.2-.369.328-.533a1.557,1.557,0,0,0,.205-.615c.041-.205.123-.369.164-.615a4.543,4.543,0,0,0,.123-.656.932.932,0,0,1,.369.328v.123a5.19,5.19,0,0,1-1.148,2.5,6.153,6.153,0,0,1-2.255,1.722Z" transform="translate(-560.34 -1538.044)" fill="#fff"/>
          <path id="Path_51134" data-name="Path 51134" d="M567.585,1544.644a6.015,6.015,0,0,0,2.583-3.649.248.248,0,0,1,.041-.164v-.041a1.418,1.418,0,0,1,.328.451c0,.041-.041.164-.041.205a5.466,5.466,0,0,1-2.911,3.2Z" transform="translate(-564.115 -1539.641)" fill="#fff"/>
        </g>
      </g>
      <g id="Group_14697" data-name="Group 14697" transform="translate(64.096 25.593)">
        <g id="Group_14696" data-name="Group 14696">
          <path id="Path_51135" data-name="Path 51135" d="M758.026,1652.133a5.526,5.526,0,0,1-4.428,5,2.512,2.512,0,0,1-.369-.943,3.176,3.176,0,0,1,0-1.64,3.894,3.894,0,0,1,.7-1.435A3.384,3.384,0,0,1,758.026,1652.133Z" transform="translate(-753.12 -1651.813)" fill="#fff"/>
          <path id="Path_51136" data-name="Path 51136" d="M758.826,1666.863a5.927,5.927,0,0,0,3.321-1.066,6.218,6.218,0,0,0,2.255-2.665l.041.041a2.509,2.509,0,0,1,.123.533,2.3,2.3,0,0,1,0,.533,3.566,3.566,0,0,1-.287,1.271,3.481,3.481,0,0,1-2.419,2.05,3.066,3.066,0,0,1-1.066.041,3.578,3.578,0,0,1-1.927-.779.04.04,0,0,1-.041.041Z" transform="translate(-757.57 -1660.64)" fill="#fff"/>
          <path id="Path_51137" data-name="Path 51137" d="M764.677,1659.2a3.9,3.9,0,0,1,.492-.369,4.673,4.673,0,0,0,.451-.451c.164-.164.287-.328.451-.492a2.456,2.456,0,0,0,.369-.533c.123-.164.2-.369.328-.533a1.558,1.558,0,0,0,.205-.615c.041-.246.123-.369.164-.615a3.706,3.706,0,0,0,.123-.656.931.931,0,0,1,.369.328v.123a5.183,5.183,0,0,1-1.148,2.5,6.141,6.141,0,0,1-2.255,1.722Z" transform="translate(-761.781 -1654.25)" fill="#fff"/>
          <path id="Path_51138" data-name="Path 51138" d="M769.067,1661.213a6.017,6.017,0,0,0,2.583-3.649.246.246,0,0,1,.041-.164v-.041a1.431,1.431,0,0,1,.328.451c0,.041-.041.164-.041.2a5.857,5.857,0,0,1-2.911,3.2Z" transform="translate(-765.556 -1656.138)" fill="#fff"/>
        </g>
      </g>
    </g>
  </g>
</svg>
